<?xml version="1.0" encoding="utf-8"?>
<!-- Generator: Adobe Illustrator 16.0.3, SVG Export Plug-In . SVG Version: 6.00 Build 0)  -->
<!DOCTYPE svg PUBLIC "-//W3C//DTD SVG 1.1//EN" "http://www.w3.org/Graphics/SVG/1.1/DTD/svg11.dtd">
<svg version="1.1" xmlns="http://www.w3.org/2000/svg" xmlns:xlink="http://www.w3.org/1999/xlink" x="0px" y="0px" width="350px"
	 height="150px" viewBox="0 0 350 150" enable-background="new 0 0 350 150" xml:space="preserve">
<g id="Layer_2">
</g>
<g id="Layer_1">
	<g>
		<path fill="#CCCCCC" d="M175.629,45.965c0,0-0.234,0.079-0.625,0.253c-0.384,0.177-0.954,0.448-1.471,0.903
			c-0.248,0.228-0.442,0.542-0.385,0.775c0.044,0.256,0.321,0.453,0.694,0.75c0.457,0.322,0.811,1.04,0.75,1.693
			c-0.038,0.651-0.282,1.179-0.498,1.653l-0.305,0.654c-0.039,0.093-0.074,0.189-0.077,0.233c-0.019,0.036,0.059,0.06,0-0.242
			c-0.049-0.159-0.145-0.272-0.238-0.333c-0.04-0.044-0.113-0.063-0.092-0.068c-0.017-0.013,0.059-0.012,0.134-0.027
			c0.15-0.019,0.359-0.065,0.552-0.11c0.079-0.042,0.424-0.122,0.564-0.183c0.094-0.08,0.21-0.103,0.273-0.187
			c0.186-0.142,0.13-0.197,0.109-0.234c-0.023-0.044-0.045-0.159-0.11-0.305c-0.071-0.148-0.146-0.295-0.233-0.417
			c-0.079-0.122-0.155-0.215-0.202-0.272c-0.054-0.063-0.06-0.062-0.055-0.055l2.432-1.757c0.006,0.007,0.069,0.108,0.139,0.239
			c0.071,0.139,0.172,0.335,0.275,0.602c0.106,0.261,0.215,0.605,0.296,1.035c0.068,0.433,0.11,1.014-0.122,1.676
			c-0.217,0.674-0.835,1.276-1.408,1.503c-0.287,0.161-0.61,0.215-0.924,0.302c-0.288,0.046-0.391,0.039-0.763,0.087
			c-0.263,0.008-0.52,0.02-0.843-0.006c-0.161-0.014-0.326-0.026-0.574-0.1c-0.099-0.023-0.278-0.101-0.426-0.196
			c-0.192-0.134-0.369-0.333-0.462-0.609c-0.137-0.536,0.021-0.76,0.082-0.949c0.083-0.184,0.164-0.303,0.243-0.424l0.442-0.612
			c0.27-0.371,0.501-0.73,0.582-1.046c0.079-0.309,0.045-0.575-0.194-0.859c-0.264-0.33-0.748-0.764-0.732-1.403
			c0.039-0.642,0.483-0.972,0.796-1.181c0.687-0.4,1.292-0.545,1.713-0.652C175.385,45.998,175.629,45.965,175.629,45.965z"/>
	</g>
	<g>
		<path fill="#CCCCCC" d="M122.662,3.971c0,0,0.945,1.552,2.12,4.412c1.149,2.862,2.526,7.041,3.391,12.231
			c0.423,2.593,0.786,5.436,0.818,8.48c0.015,3.042-0.401,6.285-1.31,9.567c-0.876,3.283-2.032,6.586-3.42,9.847l-0.549,1.215
			c-0.18,0.382-0.373,0.758-0.538,1.148c-0.354,0.771-0.692,1.568-1.018,2.352c-0.642,1.582-1.203,3.198-1.666,4.84
			c-0.922,3.288-1.503,6.616-1.972,9.68c-0.242,1.538-0.422,3.021-0.487,4.465c-0.086,1.446,0.041,2.831,0.191,4.161
			c0.396,2.647,1.098,5.055,2.084,7.326c0.971,2.27,2.188,4.4,3.472,6.356c1.316,1.938,2.671,3.705,3.938,5.268
			c1.268,1.563,2.419,2.951,3.407,4.077c0.959,1.159,1.763,2.046,2.288,2.686c0.525,0.642,0.799,1.001,0.799,1.001l-0.438,0.67
			c0,0-0.432-0.121-1.231-0.381c-0.789-0.276-1.97-0.652-3.385-1.312c-1.434-0.629-3.136-1.492-5.014-2.657
			c-1.869-1.177-3.896-2.686-5.929-4.632c-2.003-1.97-4.021-4.406-5.579-7.445c-1.593-3.008-2.517-6.69-2.57-10.435
			c-0.016-3.745,0.679-7.491,1.957-10.909c1.289-3.435,3.292-6.461,5.175-9.401c1.862-2.934,3.625-5.935,4.721-8.989
			c1.036-3.028,0.975-6.325,0.706-9.408c-0.291-3.099-0.677-6.062-0.809-8.889c-0.131-2.828-0.169-5.528-0.249-8.035
			c-0.144-5.014-0.118-9.279-0.008-12.305c0.058-1.513,0.146-2.718,0.204-3.542c0.067-0.827,0.12-1.271,0.119-1.271L122.662,3.971z"
			/>
	</g>
	<g>
		<path fill="#CCCCCC" d="M159.123,17.647c0,0-0.198,0.262-0.57,0.754c-0.385,0.497-0.998,1.202-1.653,2.078
			c-0.668,0.896-1.165,1.903-0.963,3.243c0.154,1.345,0.85,2.953,1.664,4.654c0.215,0.447,0.435,0.904,0.659,1.369
			c0.219,0.463,0.442,0.935,0.669,1.415c0.424,0.989,0.896,2.118,1.269,3.232c0.808,2.231,1.353,4.711,1.688,7.321
			c0.32,2.612,0.369,5.377,0.035,8.147c-0.316,2.771-0.949,5.552-1.83,8.213c-0.211,0.67-0.437,1.333-0.678,1.985l-0.177,0.493
			c0.055-0.128,0.009-0.019,0.019-0.04l-0.01,0.029l-0.02,0.058l-0.04,0.116l-0.08,0.232c-0.091,0.296-0.228,0.658-0.28,0.9
			c-0.28,0.994-0.527,2.215-0.696,3.331c-0.333,2.288-0.43,4.568-0.489,6.755c-0.046,2.188-0.037,4.303,0.102,6.289
			c0.156,1.982,0.416,3.845,0.824,5.502c0.409,1.657,0.921,3.134,1.533,4.38c0.615,1.24,1.306,2.274,2.001,3.059
			c0.345,0.394,0.683,0.733,0.988,1.032c0.321,0.267,0.593,0.529,0.833,0.713c0.493,0.375,0.756,0.575,0.756,0.575l-0.22,0.77
			c0,0-0.349,0.008-1.029-0.025c-0.672-0.053-1.679-0.2-2.907-0.67c-1.226-0.461-2.688-1.252-4.069-2.509
			c-1.393-1.241-2.728-2.897-3.822-4.871c-1.118-1.968-1.97-4.244-2.554-6.703c-0.604-2.456-0.865-5.105-0.767-7.827
			c0.123-2.721,0.653-5.504,1.535-8.231c0.456-1.387,0.923-2.67,1.579-4.114l0.893-1.844c0.28-0.549,0.543-1.102,0.792-1.658
			c2.024-4.448,3.056-9.208,3.084-13.791c0.005-2.287-0.217-4.523-0.65-6.623c-0.198-1.062-0.443-2.009-0.714-3.019
			c-0.158-0.507-0.312-1.005-0.465-1.495c-0.154-0.485-0.305-0.96-0.454-1.426c-0.608-1.945-1.111-3.804-1.056-5.667
			c0.006-0.917,0.262-1.849,0.658-2.566c0.396-0.727,0.889-1.253,1.321-1.667c0.878-0.829,1.559-1.38,2.004-1.788
			c0.45-0.421,0.689-0.646,0.689-0.646L159.123,17.647z"/>
	</g>
	<g>
		<path fill="#CCCCCC" d="M228.492,4.144c0,0,0.052,0.444,0.119,1.271c0.058,0.823,0.146,2.028,0.204,3.542
			c0.11,3.026,0.136,7.291-0.008,12.305c-0.08,2.508-0.117,5.208-0.249,8.035c-0.132,2.827-0.519,5.791-0.809,8.89
			c-0.27,3.082-0.33,6.38,0.706,9.407c1.096,3.054,2.858,6.055,4.721,8.989c1.882,2.94,3.886,5.966,5.175,9.401
			c1.277,3.417,1.973,7.164,1.957,10.909c-0.054,3.744-0.978,7.427-2.57,10.436c-1.558,3.038-3.576,5.476-5.579,7.444
			c-2.033,1.946-4.061,3.455-5.93,4.632c-1.877,1.165-3.579,2.029-5.013,2.657c-1.415,0.66-2.597,1.036-3.386,1.312
			c-0.8,0.26-1.231,0.381-1.231,0.381l-0.438-0.67c0,0,0.274-0.359,0.799-1.001c0.524-0.64,1.328-1.526,2.288-2.686
			c0.987-1.125,2.139-2.514,3.406-4.076c1.268-1.563,2.622-3.331,3.938-5.269c1.285-1.956,2.501-4.087,3.472-6.356
			c0.986-2.271,1.688-4.679,2.085-7.326c0.15-1.33,0.277-2.715,0.191-4.161c-0.064-1.445-0.244-2.927-0.487-4.465
			c-0.469-3.064-1.049-6.392-1.972-9.68c-0.463-1.642-1.024-3.258-1.666-4.84c-0.325-0.784-0.663-1.581-1.018-2.351
			c-0.165-0.39-0.357-0.767-0.538-1.148l-0.549-1.215c-1.389-3.261-2.544-6.564-3.421-9.847c-0.908-3.282-1.324-6.525-1.309-9.567
			c0.031-3.044,0.395-5.887,0.817-8.48c0.865-5.19,2.241-9.369,3.391-12.231c1.175-2.86,2.12-4.412,2.12-4.412L228.492,4.144z"/>
	</g>
	<g>
		<path fill="#CCCCCC" d="M191.845,17.113c0,0,0.239,0.225,0.689,0.646c0.445,0.408,1.126,0.959,2.005,1.788
			c0.433,0.414,0.925,0.94,1.321,1.666c0.396,0.717,0.652,1.649,0.658,2.566c0.055,1.864-0.447,3.722-1.056,5.667
			c-0.148,0.466-0.3,0.941-0.454,1.426c-0.151,0.489-0.307,0.988-0.465,1.495c-0.271,1.01-0.516,1.957-0.714,3.019
			c-0.433,2.099-0.655,4.335-0.65,6.623c0.029,4.583,1.061,9.343,3.085,13.791c0.249,0.557,0.513,1.11,0.792,1.658l0.893,1.844
			c0.656,1.444,1.124,2.727,1.58,4.114c0.882,2.728,1.411,5.511,1.534,8.232c0.099,2.721-0.162,5.371-0.767,7.827
			c-0.584,2.458-1.437,4.735-2.554,6.703c-1.096,1.974-2.431,3.63-3.822,4.871c-1.383,1.257-2.844,2.047-4.07,2.508
			c-1.228,0.47-2.234,0.617-2.907,0.67c-0.681,0.033-1.029,0.025-1.029,0.025l-0.219-0.77c0,0,0.263-0.2,0.755-0.575
			c0.24-0.184,0.513-0.446,0.833-0.713c0.306-0.299,0.644-0.639,0.988-1.032c0.695-0.783,1.386-1.818,2.001-3.059
			c0.612-1.246,1.125-2.723,1.534-4.38c0.408-1.656,0.669-3.52,0.824-5.501c0.14-1.987,0.148-4.102,0.103-6.29
			c-0.06-2.188-0.155-4.467-0.489-6.755c-0.168-1.115-0.416-2.336-0.695-3.331c-0.053-0.242-0.189-0.604-0.28-0.899l-0.08-0.232
			l-0.04-0.116l-0.021-0.058l-0.01-0.029c0.01,0.021-0.036-0.088,0.02,0.04l-0.177-0.492c-0.241-0.652-0.468-1.314-0.679-1.985
			c-0.881-2.662-1.514-5.442-1.83-8.214c-0.333-2.771-0.284-5.536,0.036-8.147c0.335-2.61,0.879-5.09,1.688-7.321
			c0.373-1.114,0.844-2.244,1.269-3.232c0.228-0.48,0.45-0.952,0.67-1.416c0.224-0.465,0.443-0.922,0.658-1.369
			c0.814-1.701,1.51-3.309,1.664-4.654c0.202-1.34-0.295-2.347-0.963-3.243c-0.655-0.875-1.27-1.581-1.654-2.078
			c-0.372-0.492-0.57-0.754-0.57-0.754L191.845,17.113z"/>
	</g>
	<g>
		<path fill="#CCCCCC" d="M119.439,82.429c0,0,0.007,0.26,0.021,0.748c0.016,0.168-0.008,0.761-0.038,1.277
			c-0.02,0.273-0.042,0.566-0.066,0.879c-0.04,0.24-0.082,0.495-0.126,0.765c-0.084,0.544-0.192,1.133-0.354,1.738
			c-0.141,0.619-0.314,1.277-0.544,1.958c-0.201,0.691-0.465,1.409-0.77,2.156c-0.27,0.754-0.663,1.521-1.043,2.322
			c-0.381,0.788-0.914,1.632-1.378,2.413c-0.484,0.74-0.893,1.33-1.229,1.959c-0.693,1.23-1.182,2.763-1.544,4.516
			c-0.383,1.735-0.577,3.671-0.742,5.641c-0.14,1.979-0.237,4.019-0.249,6.072c-0.055,2.05,0.005,4.115,0.023,6.147
			c0.068,2.037,0.134,4.042,0.199,5.981c0.195,3.884,0.405,7.516,0.64,10.626c0.199,3.113,0.449,5.702,0.588,7.519
			c0.15,1.815,0.236,2.854,0.236,2.854s-0.209-1.02-0.576-2.804c-0.356-1.787-0.916-4.332-1.487-7.405
			c-0.608-3.068-1.253-6.66-1.918-10.523c-0.3-1.939-0.61-3.944-0.925-5.98c-0.266-2.049-0.578-4.126-0.776-6.231
			c-0.24-2.097-0.396-4.217-0.501-6.327c-0.077-2.118-0.125-4.217,0.073-6.338c0.174-2.099,0.552-4.274,1.366-6.291
			c0.388-1.006,0.87-1.913,1.222-2.629c0.304-0.712,0.584-1.28,0.805-1.929c0.208-0.643,0.438-1.236,0.569-1.848
			c0.163-0.596,0.298-1.164,0.383-1.708c0.115-0.54,0.181-1.042,0.226-1.504c0.069-0.468,0.088-0.876,0.097-1.238
			c0.008-0.182,0.017-0.354,0.024-0.517c-0.009-0.092-0.018-0.178-0.026-0.258c-0.005-0.077-0.005-0.148-0.003-0.214
			c-0.001-0.039,0.008-0.047,0-0.108c-0.01-0.067-0.02-0.132-0.028-0.191c-0.072-0.482-0.11-0.74-0.11-0.74L119.439,82.429z"/>
	</g>
	<g>
		<path fill="#CCCCCC" d="M238.876,83.382c0,0-0.036,0.185-0.104,0.529c-0.038,0.151-0.106,0.766-0.101,1.479
			c0.001,1.467,0.206,3.778,1.045,6.246c0.214,0.636,0.444,1.191,0.777,1.879c0.353,0.71,0.837,1.643,1.222,2.64
			c0.808,2.021,1.176,4.191,1.346,6.287c0.193,2.118,0.144,4.215,0.066,6.33c-0.107,2.108-0.264,4.227-0.505,6.32
			c-0.199,2.104-0.513,4.177-0.778,6.225c-0.315,2.034-0.626,4.036-0.926,5.974c-0.339,1.927-0.666,3.789-0.977,5.555
			c-0.334,1.759-0.65,3.422-0.943,4.957c-0.571,3.07-1.131,5.612-1.487,7.397c-0.366,1.782-0.576,2.801-0.576,2.801
			s0.086-1.036,0.235-2.851c0.139-1.814,0.388-4.4,0.586-7.512c0.104-1.554,0.219-3.236,0.339-5.017
			c0.095-1.779,0.195-3.656,0.299-5.598c0.064-1.938,0.131-3.94,0.198-5.976c0.018-2.03,0.078-4.093,0.023-6.141
			c-0.012-2.052-0.109-4.088-0.247-6.066c-0.164-1.968-0.358-3.901-0.738-5.636c-0.358-1.753-0.843-3.289-1.532-4.518
			c-0.341-0.634-0.729-1.205-1.219-1.947c-0.499-0.77-1.01-1.659-1.391-2.464c-1.574-3.29-2.179-6.186-2.457-8.326
			c-0.134-1.099-0.17-1.916-0.141-2.734c0.021-0.334,0.038-0.591,0.049-0.763c0.01-0.126,0.015-0.19,0.015-0.19L238.876,83.382z"/>
	</g>
	<g>
	</g>
	<g>
	</g>
	<g>
	</g>
	<g>
	</g>
	<g>
	</g>
	<g>
	</g>
</g>
</svg>
