<?xml version="1.0" encoding="utf-8"?>
<!-- Generator: Adobe Illustrator 16.0.3, SVG Export Plug-In . SVG Version: 6.00 Build 0)  -->
<!DOCTYPE svg PUBLIC "-//W3C//DTD SVG 1.1//EN" "http://www.w3.org/Graphics/SVG/1.1/DTD/svg11.dtd">
<svg version="1.1" xmlns="http://www.w3.org/2000/svg" xmlns:xlink="http://www.w3.org/1999/xlink" x="0px" y="0px" width="350px"
	 height="150px" viewBox="0 0 350 150" enable-background="new 0 0 350 150" xml:space="preserve">
<g id="Layer_2">
</g>
<g id="Layer_1">
	<path fill="#ECECEC" d="M115.301,134c0,0-2.199-27.826,3.301-26.913s22.027,1.155,9-8.087s-8.678-14.08-15.089-4.04
		s-0.194,41.54-0.194,41.54L115.301,134z"/>
	<path fill="#ECECEC" d="M234.801,134c0,0,2.199-27.826-3.301-26.913s-22.027,1.155-9-8.087s8.678-14.08,15.089-4.04
		s0.194,41.54,0.194,41.54L234.801,134z"/>
	<path fill="#ECECEC" d="M116.235,63.749c-0.199,0.579-10.73,46.178,45.801,43.198s-8.718,0.892-15.422-6.705
		s-29.359-21.898-22.575-33.815c6.784-11.917,20.191-38.73,14.083-46.03s-11.204-12.212-13.87-4.766s2.99,19.806-0.214,28.6
		S116.235,63.749,116.235,63.749z"/>
	<path fill="#ECECEC" d="M155.478,26.767c0,0,8.309,12.516,1.326,30.937s-2.238,29.9,4.067,34.353s-14.907-2.434-17.662-10.974
		c-2.755-8.541,7.713-23.691,7.713-33.333S152.043,24.242,155.478,26.767z"/>
	<path fill="#ECECEC" d="M195.306,26.767c0,0-8.31,12.516-1.326,30.937s2.237,29.9-4.067,34.353s14.906-2.434,17.662-10.974
		c2.754-8.541-7.714-23.691-7.714-33.333S198.74,24.242,195.306,26.767z"/>
	<g>
		<path fill="#E17D74" d="M175.629,45.965c0,0-0.234,0.079-0.625,0.253c-0.384,0.177-0.954,0.448-1.471,0.903
			c-0.248,0.228-0.442,0.542-0.385,0.775c0.044,0.256,0.321,0.453,0.694,0.75c0.457,0.322,0.811,1.04,0.75,1.693
			c-0.038,0.651-0.282,1.179-0.498,1.653l-0.305,0.654c-0.039,0.093-0.074,0.189-0.077,0.233c-0.019,0.036,0.059,0.06,0-0.242
			c-0.049-0.159-0.145-0.272-0.238-0.333c-0.04-0.044-0.113-0.063-0.092-0.068c-0.017-0.013,0.059-0.012,0.134-0.027
			c0.15-0.019,0.359-0.065,0.552-0.11c0.079-0.042,0.424-0.122,0.564-0.183c0.094-0.08,0.21-0.103,0.273-0.187
			c0.186-0.142,0.13-0.197,0.109-0.234c-0.023-0.044-0.045-0.159-0.11-0.305c-0.071-0.148-0.146-0.295-0.233-0.417
			c-0.079-0.122-0.155-0.215-0.202-0.272c-0.054-0.063-0.06-0.062-0.055-0.055l2.432-1.757c0.006,0.007,0.069,0.108,0.139,0.239
			c0.071,0.139,0.172,0.335,0.275,0.602c0.106,0.261,0.215,0.605,0.296,1.035c0.068,0.433,0.11,1.014-0.122,1.676
			c-0.217,0.674-0.835,1.276-1.408,1.503c-0.287,0.161-0.61,0.215-0.924,0.302c-0.288,0.046-0.391,0.039-0.763,0.087
			c-0.263,0.008-0.52,0.02-0.843-0.006c-0.161-0.014-0.326-0.026-0.574-0.1c-0.099-0.023-0.278-0.101-0.426-0.196
			c-0.192-0.134-0.369-0.333-0.462-0.609c-0.137-0.536,0.021-0.76,0.082-0.949c0.083-0.184,0.164-0.303,0.243-0.424l0.442-0.612
			c0.27-0.371,0.501-0.73,0.582-1.046c0.079-0.309,0.045-0.575-0.194-0.859c-0.264-0.33-0.748-0.764-0.732-1.403
			c0.039-0.642,0.483-0.972,0.796-1.181c0.687-0.4,1.292-0.545,1.713-0.652C175.385,45.998,175.629,45.965,175.629,45.965z"/>
	</g>
	<g>
		<path fill="#E17D74" d="M122.564,3.992c0,0,0.812,1.58,1.806,4.464c1.01,2.879,2.198,7.071,2.977,12.239
			c0.38,2.583,0.703,5.407,0.747,8.424c0.03,3.015-0.286,6.224-1.044,9.482c-0.729,3.259-1.732,6.562-3.081,9.792
			c-1.439,3.146-2.86,6.218-3.889,9.484c-1.046,3.243-1.812,6.531-2.373,9.645c-0.604,3.108-0.84,6.119-0.503,8.912
			c0.354,2.784,1.083,5.351,2.145,7.714c1.044,2.366,2.361,4.535,3.736,6.493c1.389,1.955,2.851,3.667,4.179,5.197
			c1.356,1.499,2.569,2.829,3.615,3.89c1.017,1.098,1.867,1.92,2.425,2.515c0.557,0.603,0.853,0.924,0.853,0.924l-0.328,0.502
			c0,0-0.412-0.15-1.177-0.459c-0.756-0.321-1.89-0.761-3.248-1.483c-1.376-0.692-3.017-1.614-4.805-2.844
			c-0.891-0.622-1.855-1.272-2.782-2.087c-0.961-0.768-1.931-1.65-2.906-2.615c-1.913-1.968-3.832-4.366-5.316-7.309
			c-1.517-2.917-2.413-6.439-2.509-10.046c-0.062-3.609,0.568-7.251,1.749-10.624c1.197-3.385,3.016-6.451,4.774-9.436
			c1.744-2.981,3.458-5.993,4.603-9.06c1.075-3.058,1.167-6.355,1.045-9.462c-0.14-3.121-0.426-6.121-0.544-8.974
			c-0.114-2.871-0.221-5.585-0.32-8.091c-0.229-5.037-0.392-9.288-0.421-12.297c-0.054-3.004,0.008-4.76,0.008-4.76L122.564,3.992z"
			/>
	</g>
	<g>
		<path fill="#E17D74" d="M158.937,17.48c0,0-0.211,0.25-0.608,0.72c-0.403,0.47-1.038,1.126-1.763,1.987
			c-0.729,0.85-1.425,2.03-1.284,3.552c0.088,1.507,0.717,3.197,1.47,4.973c0.385,0.906,0.787,1.85,1.203,2.826
			c0.377,0.995,0.779,2.066,1.099,3.164c0.696,2.189,1.127,4.595,1.353,7.104c0.452,5.024-0.337,10.505-2.186,15.557
			c-0.221,0.636-0.457,1.265-0.708,1.885l-0.348,0.9c-0.11,0.3-0.249,0.621-0.335,0.904c-0.403,1.132-0.72,2.374-0.977,3.573
			c-0.493,2.426-0.768,4.86-0.816,7.217c-0.158,4.709,0.425,9.129,1.67,12.649c0.628,1.754,1.39,3.291,2.251,4.533
			c0.851,1.249,1.792,2.199,2.649,2.885c0.856,0.692,1.625,1.129,2.16,1.41c0.549,0.263,0.841,0.402,0.841,0.402l-0.082,0.289
			c0,0-0.328-0.069-0.943-0.199c-0.611-0.153-1.509-0.434-2.568-1.004c-1.063-0.559-2.274-1.435-3.421-2.682
			c-1.143-1.245-2.229-2.842-3.104-4.719c-0.898-1.869-1.564-4.017-2.012-6.326c-0.469-2.308-0.636-4.792-0.564-7.346
			c0.134-2.552,0.485-5.181,1.208-7.771c0.367-1.301,0.765-2.565,1.298-3.871c0.125-0.334,0.261-0.607,0.392-0.915l0.406-0.912
			c0.27-0.58,0.523-1.167,0.762-1.758c1.955-4.714,2.913-9.808,2.693-14.594c-0.104-2.39-0.44-4.699-0.985-6.841
			c-0.252-1.079-0.566-2.083-0.884-3.087c-0.36-0.995-0.709-1.957-1.043-2.879c-0.669-1.869-1.239-3.646-1.251-5.347
			c-0.029-0.843,0.169-1.663,0.498-2.322c0.328-0.666,0.76-1.18,1.161-1.601c0.809-0.844,1.468-1.443,1.895-1.879
			c0.425-0.443,0.652-0.68,0.652-0.68L158.937,17.48z"/>
	</g>
	<g>
		<path fill="#E17D74" d="M228.395,4.122c0,0,0.062,1.756,0.009,4.76c-0.029,3.009-0.192,7.26-0.422,12.297
			c-0.099,2.506-0.206,5.22-0.319,8.091c-0.118,2.854-0.404,5.853-0.545,8.975c-0.121,3.106-0.029,6.404,1.046,9.462
			c1.145,3.066,2.858,6.078,4.602,9.059c1.759,2.985,3.578,6.051,4.774,9.436c1.182,3.373,1.812,7.015,1.749,10.624
			c-0.096,3.606-0.991,7.13-2.509,10.046c-1.484,2.942-3.403,5.341-5.316,7.309c-0.975,0.965-1.944,1.848-2.905,2.615
			c-0.927,0.814-1.892,1.465-2.782,2.087c-1.788,1.229-3.429,2.151-4.805,2.844c-1.358,0.723-2.492,1.162-3.249,1.483
			c-0.765,0.309-1.177,0.459-1.177,0.459l-0.328-0.502c0,0,0.297-0.321,0.853-0.924c0.559-0.595,1.409-1.417,2.425-2.515
			c1.046-1.061,2.259-2.391,3.615-3.89c1.329-1.53,2.791-3.242,4.18-5.197c1.375-1.957,2.691-4.127,3.736-6.493
			c1.062-2.362,1.791-4.93,2.145-7.714c0.337-2.792,0.101-5.804-0.503-8.912c-0.561-3.114-1.326-6.402-2.373-9.645
			c-1.028-3.266-2.449-6.338-3.889-9.484c-1.35-3.231-2.353-6.533-3.081-9.792c-0.759-3.259-1.075-6.467-1.045-9.482
			c0.045-3.017,0.367-5.842,0.747-8.424c0.778-5.167,1.967-9.359,2.977-12.239c0.993-2.884,1.806-4.464,1.806-4.464L228.395,4.122z"
			/>
	</g>
	<g>
		<path fill="#E17D74" d="M191.658,17.28c0,0,0.228,0.236,0.652,0.68c0.427,0.436,1.087,1.035,1.896,1.878
			c0.4,0.421,0.833,0.936,1.16,1.601c0.329,0.659,0.527,1.479,0.498,2.322c-0.012,1.701-0.581,3.478-1.25,5.347
			c-0.335,0.923-0.683,1.884-1.044,2.879c-0.317,1.004-0.632,2.008-0.884,3.087c-0.545,2.142-0.88,4.452-0.984,6.841
			c-0.221,4.787,0.737,9.88,2.693,14.595c0.238,0.591,0.492,1.178,0.762,1.758l0.406,0.912c0.13,0.307,0.267,0.58,0.391,0.915
			c0.533,1.306,0.932,2.569,1.299,3.871c0.722,2.59,1.073,5.219,1.207,7.771c0.073,2.554-0.095,5.038-0.563,7.346
			c-0.448,2.311-1.114,4.457-2.013,6.327c-0.876,1.876-1.962,3.473-3.104,4.718c-1.147,1.247-2.358,2.123-3.422,2.682
			c-1.06,0.57-1.957,0.851-2.568,1.004c-0.615,0.13-0.943,0.199-0.943,0.199l-0.082-0.289c0,0,0.293-0.14,0.842-0.402
			c0.534-0.281,1.304-0.718,2.159-1.41c0.858-0.686,1.799-1.635,2.649-2.885c0.861-1.242,1.623-2.779,2.252-4.533
			c1.245-3.52,1.829-7.939,1.671-12.648c-0.048-2.357-0.322-4.791-0.816-7.217c-0.257-1.2-0.574-2.441-0.977-3.573
			c-0.087-0.284-0.226-0.604-0.335-0.905l-0.349-0.9c-0.252-0.621-0.487-1.25-0.708-1.885c-1.849-5.052-2.639-10.533-2.187-15.558
			c0.226-2.508,0.658-4.914,1.354-7.103c0.32-1.098,0.722-2.169,1.099-3.164c0.416-0.977,0.817-1.92,1.203-2.826
			c0.753-1.777,1.382-3.466,1.47-4.974c0.142-1.522-0.556-2.702-1.284-3.552c-0.726-0.861-1.36-1.518-1.764-1.987
			c-0.396-0.47-0.607-0.72-0.607-0.72L191.658,17.28z"/>
	</g>
	<g>
		<path fill="#E17D74" d="M118.444,82.527c0,0,0.011,0.26,0.032,0.747c0.021,0.186-0.006,0.706-0.029,1.182
			c-0.017,0.249-0.035,0.517-0.054,0.802c-0.036,0.23-0.074,0.475-0.114,0.733c-0.075,0.521-0.172,1.088-0.322,1.676
			c-0.129,0.6-0.289,1.238-0.504,1.901c-0.187,0.672-0.434,1.372-0.721,2.1c-0.253,0.736-0.625,1.482-0.984,2.264
			c-0.361,0.771-0.863,1.58-1.307,2.353c-0.468,0.737-0.886,1.366-1.228,2.042c-0.708,1.329-1.183,2.941-1.522,4.738
			c-0.359,1.783-0.523,3.739-0.658,5.728c-0.11,1.996-0.175,4.045-0.155,6.104c-0.023,2.057,0.068,4.124,0.118,6.158
			c0.099,2.037,0.195,4.042,0.29,5.981c0.254,3.882,0.518,7.508,0.8,10.612c0.245,3.109,0.534,5.692,0.701,7.505
			c0.177,1.812,0.278,2.848,0.278,2.848s-0.194-1.021-0.534-2.811c-0.329-1.79-0.85-4.341-1.375-7.419
			c-0.562-3.073-1.153-6.671-1.759-10.536c-0.271-1.939-0.55-3.944-0.834-5.98c-0.235-2.047-0.515-4.122-0.682-6.221
			c-0.209-2.092-0.333-4.201-0.407-6.296c-0.046-2.099-0.064-4.178,0.157-6.25c0.198-2.056,0.59-4.151,1.388-6.069
			c0.381-0.959,0.854-1.826,1.223-2.546c0.324-0.72,0.636-1.322,0.876-1.989c0.229-0.662,0.479-1.277,0.629-1.906
			c0.18-0.615,0.332-1.202,0.431-1.765c0.129-0.557,0.208-1.079,0.265-1.561c0.081-0.484,0.111-0.916,0.129-1.301
			c0.013-0.192,0.026-0.375,0.038-0.547c-0.005-0.119-0.01-0.231-0.015-0.336c-0.014-0.229,0.031-0.312-0.023-0.609
			c-0.064-0.483-0.099-0.741-0.099-0.741L118.444,82.527z"/>
	</g>
	<g>
		<path fill="#E17D74" d="M237.886,83.242c0,0-0.012,0.063-0.035,0.188c-0.011,0.062-0.025,0.139-0.042,0.23
			c-0.007,0.047-0.014,0.102-0.022,0.164c-0.036,0.234-0.092,0.874-0.07,1.636c0.036,1.551,0.291,3.936,1.222,6.506
			c0.234,0.657,0.5,1.254,0.854,1.952c0.37,0.714,0.843,1.601,1.222,2.553c0.793,1.921,1.176,4.013,1.369,6.066
			c0.217,2.069,0.197,4.146,0.149,6.243c-0.075,2.092-0.201,4.199-0.41,6.288c-0.167,2.097-0.449,4.169-0.684,6.214
			c-0.285,2.035-0.564,4.037-0.835,5.975c-0.31,1.929-0.608,3.792-0.892,5.56c-0.308,1.762-0.599,3.428-0.868,4.965
			c-0.524,3.075-1.046,5.623-1.375,7.411c-0.339,1.787-0.533,2.808-0.533,2.808s0.101-1.034,0.277-2.845
			c0.167-1.811,0.455-4.391,0.699-7.497c0.128-1.551,0.268-3.231,0.415-5.009c0.121-1.778,0.25-3.653,0.383-5.592
			c0.094-1.938,0.19-3.941,0.289-5.976c0.049-2.032,0.142-4.098,0.118-6.151c0.02-2.058-0.046-4.104-0.153-6.099
			c-0.134-1.986-0.298-3.94-0.654-5.723c-0.335-1.796-0.805-3.411-1.509-4.738c-0.347-0.68-0.747-1.296-1.219-2.033
			c-0.479-0.76-0.955-1.608-1.314-2.392c-1.482-3.187-2.036-6.01-2.281-8.066c-0.117-1.051-0.141-1.842-0.109-2.577
			c0.011-0.181,0.021-0.34,0.029-0.478c0.009-0.093,0.016-0.17,0.021-0.233c0.012-0.125,0.018-0.189,0.018-0.189L237.886,83.242z"/>
	</g>
	<g>
	</g>
	<g>
	</g>
	<g>
	</g>
	<g>
	</g>
	<g>
	</g>
	<g>
	</g>
</g>
</svg>
