<?xml version="1.0" encoding="utf-8"?>
<!-- Generator: Adobe Illustrator 16.0.3, SVG Export Plug-In . SVG Version: 6.00 Build 0)  -->
<!DOCTYPE svg PUBLIC "-//W3C//DTD SVG 1.1//EN" "http://www.w3.org/Graphics/SVG/1.1/DTD/svg11.dtd">
<svg version="1.1" xmlns="http://www.w3.org/2000/svg" xmlns:xlink="http://www.w3.org/1999/xlink" x="0px" y="0px" width="350px"
	 height="150px" viewBox="0 0 350 150" enable-background="new 0 0 350 150" xml:space="preserve">
<g id="Layer_2">
	<ellipse opacity="0.2" fill="#ECECEC" cx="175.629" cy="49.568" rx="63.239" ry="42.802"/>
	<ellipse opacity="0.2" fill="#ECECEC" cx="175.629" cy="49.568" rx="41.132" ry="31.816"/>
	<circle opacity="0.9" fill="#ECECEC" cx="175.629" cy="49.568" r="22.252"/>
</g>
<g id="Layer_1">
	<g>
		<path fill="#E17D74" d="M175.629,45.965c0,0-0.238,0.063-0.64,0.213c-0.396,0.153-0.978,0.382-1.551,0.819
			c-0.27,0.222-0.547,0.541-0.522,0.911c0.024,0.383,0.37,0.659,0.707,0.967c0.384,0.309,0.631,0.876,0.564,1.415
			c-0.053,0.539-0.292,1.011-0.526,1.451l-0.35,0.64c-0.109,0.184-0.188,0.464-0.16,0.452c-0.076-0.055,0.158,0.043,0.356,0.016
			c0.208-0.004,0.433-0.039,0.649-0.071c0.176-0.044,0.441-0.095,0.63-0.151c0.167-0.083,0.353-0.116,0.49-0.225
			c0.315-0.17,0.484-0.408,0.542-0.657c0.124-0.51-0.116-1.058-0.287-1.385c-0.179-0.339-0.322-0.513-0.31-0.499l0.811-0.586
			c0.009,0.016,0.166,0.236,0.361,0.67c0.101,0.215,0.198,0.493,0.275,0.829c0.067,0.337,0.103,0.763-0.045,1.219
			c-0.138,0.461-0.531,0.882-0.975,1.081c-0.212,0.135-0.466,0.179-0.708,0.263c-0.238,0.052-0.422,0.073-0.696,0.119
			c-0.24,0.021-0.48,0.043-0.747,0.032c-0.132-0.004-0.268-0.013-0.427-0.057c-0.136-0.033-0.386-0.128-0.482-0.403
			c-0.084-0.499,0.138-0.675,0.242-0.913l0.396-0.626c0.252-0.405,0.487-0.821,0.554-1.249c0.073-0.423-0.067-0.84-0.379-1.137
			c-0.3-0.319-0.715-0.674-0.72-1.185c0.007-0.506,0.368-0.83,0.659-1.046c0.63-0.418,1.223-0.605,1.632-0.736
			C175.388,46.013,175.629,45.965,175.629,45.965z"/>
	</g>
	<g>
		<path fill="#E17D74" d="M122.418,4.025c0,0,0.145,0.438,0.417,1.257c0.257,0.824,0.616,2.038,1.017,3.597
			c0.397,1.559,0.843,3.463,1.26,5.667c0.421,2.203,0.809,4.706,1.128,7.455c0.273,2.751,0.557,5.746,0.498,8.935
			c0.017,1.59-0.152,3.232-0.279,4.898c-0.088,0.834-0.236,1.675-0.353,2.522c-0.062,0.423-0.125,0.848-0.188,1.274
			c-0.091,0.424-0.183,0.85-0.274,1.278c-0.204,0.851-0.333,1.717-0.576,2.571c-0.263,0.85-0.498,1.71-0.743,2.571
			c-0.627,1.688-1.281,3.396-2.037,5.01c-1.446,3.279-2.673,6.721-3.589,10.224c-0.914,3.503-1.56,7.047-1.926,10.524
			c-0.382,3.479-0.314,6.916,0.155,10.159c0.234,1.623,0.583,3.192,0.979,4.713c0.459,1.503,0.945,2.961,1.518,4.348
			c1.176,2.755,2.575,5.261,4.127,7.412c0.365,0.554,0.782,1.055,1.158,1.569c0.375,0.516,0.761,1.006,1.167,1.46
			c0.394,0.466,0.778,0.92,1.151,1.361c0.396,0.424,0.781,0.835,1.154,1.233c1.501,1.589,2.897,2.913,4.084,3.965
			c1.16,1.091,2.148,1.859,2.805,2.41c0.654,0.557,1.003,0.854,1.003,0.854l-0.164,0.252c0,0-0.403-0.221-1.16-0.635
			c-0.752-0.423-1.863-1.036-3.211-1.931c-0.687-0.431-1.438-0.923-2.212-1.522c-0.787-0.582-1.65-1.202-2.496-1.961
			c-1.774-1.426-3.574-3.282-5.409-5.437c-1.802-2.182-3.505-4.791-4.863-7.779c-1.391-2.972-2.34-6.364-2.723-9.915
			c-0.396-3.552-0.284-7.252,0.307-10.899c0.541-3.662,1.674-7.237,2.993-10.688c1.345-3.447,2.859-6.789,4.316-10.089
			c0.765-1.645,1.377-3.281,1.842-4.938c0.173-0.852,0.354-1.693,0.503-2.533c0.139-0.842,0.185-1.7,0.266-2.536
			c0.035-0.419,0.069-0.836,0.104-1.252c0.007-0.419,0.015-0.836,0.022-1.252c0.013-0.828,0.026-1.647,0.04-2.458
			c-0.019-0.812-0.037-1.616-0.055-2.411c0.01-0.791-0.023-1.576-0.066-2.35c-0.039-0.773-0.04-1.537-0.061-2.288
			c-0.037-0.752-0.09-1.493-0.108-2.223c-0.035-1.459-0.148-2.868-0.237-4.222c-0.157-2.711-0.395-5.194-0.568-7.403
			c-0.206-2.21-0.385-4.137-0.532-5.724c-0.303-3.188-0.476-5.009-0.476-5.009L122.418,4.025z"/>
	</g>
	<g>
		<path fill="#E17D74" d="M158.899,17.447c0,0-0.214,0.248-0.616,0.712c-0.409,0.463-1.048,1.108-1.79,1.965
			c-0.745,0.838-1.484,2.058-1.351,3.62c0.077,1.542,0.697,3.246,1.438,5.038c0.378,0.908,0.771,1.854,1.179,2.833
			c0.369,0.996,0.756,2.056,1.065,3.15c0.673,2.18,1.087,4.571,1.293,7.059c0.414,4.985-0.404,10.401-2.271,15.396
			c-0.44,1.273-0.984,2.468-1.414,3.675c-0.42,1.162-0.753,2.406-1.032,3.622c-0.538,2.452-0.823,4.918-0.886,7.308
			c-0.098,2.389,0.046,4.704,0.348,6.867c0.318,2.16,0.801,4.179,1.474,5.952c0.673,1.772,1.469,3.331,2.384,4.572
			c0.91,1.242,1.896,2.177,2.784,2.849c0.888,0.678,1.686,1.074,2.231,1.337c0.56,0.24,0.858,0.369,0.858,0.369l-0.055,0.191
			c0,0-0.322-0.08-0.926-0.232c-0.6-0.172-1.469-0.491-2.497-1.077c-1.034-0.572-2.199-1.464-3.287-2.718
			c-1.089-1.247-2.141-2.821-2.972-4.68c-0.854-1.851-1.483-3.972-1.904-6.252c-0.441-2.279-0.567-4.729-0.521-7.25
			c0.119-2.519,0.46-5.115,1.137-7.679c0.345-1.285,0.729-2.546,1.243-3.822c0.492-1.235,1.079-2.41,1.537-3.6
			c1.938-4.771,2.868-9.929,2.609-14.755c-0.124-2.409-0.477-4.734-1.045-6.885c-0.262-1.083-0.59-2.099-0.917-3.101
			c-0.369-0.992-0.726-1.951-1.068-2.871c-0.682-1.854-1.259-3.617-1.282-5.283c-0.035-0.827,0.153-1.622,0.468-2.268
			c0.312-0.652,0.731-1.165,1.124-1.588c0.792-0.848,1.447-1.458,1.868-1.901c0.419-0.449,0.644-0.688,0.644-0.688L158.899,17.447z"
			/>
	</g>
	<g>
		<path fill="#E17D74" d="M228.248,4.089c0,0-0.173,1.821-0.476,5.009c-0.147,1.586-0.327,3.513-0.533,5.724
			c-0.174,2.209-0.411,4.692-0.567,7.403c-0.09,1.354-0.202,2.763-0.237,4.222c-0.019,0.73-0.071,1.47-0.108,2.223
			c-0.021,0.751-0.022,1.515-0.061,2.288c-0.044,0.774-0.077,1.559-0.066,2.35c-0.018,0.794-0.036,1.598-0.055,2.41
			c0.013,0.811,0.026,1.631,0.04,2.458c0.007,0.416,0.015,0.833,0.021,1.252c0.034,0.416,0.069,0.833,0.104,1.252
			c0.081,0.836,0.127,1.694,0.266,2.536c0.149,0.839,0.33,1.681,0.503,2.533c0.465,1.658,1.077,3.294,1.843,4.939
			c1.456,3.3,2.971,6.642,4.315,10.089c1.319,3.45,2.453,7.025,2.993,10.687c0.591,3.647,0.703,7.348,0.308,10.899
			c-0.384,3.551-1.333,6.943-2.724,9.915c-1.358,2.988-3.062,5.599-4.863,7.78c-1.835,2.153-3.635,4.011-5.409,5.436
			c-0.846,0.759-1.709,1.379-2.496,1.961c-0.773,0.6-1.524,1.092-2.211,1.522c-1.349,0.895-2.46,1.508-3.212,1.931
			c-0.757,0.414-1.16,0.635-1.16,0.635l-0.164-0.252c0,0,0.349-0.297,1.003-0.854c0.657-0.551,1.646-1.319,2.805-2.409
			c1.188-1.052,2.584-2.377,4.085-3.966c0.373-0.398,0.758-0.81,1.154-1.232c0.373-0.442,0.757-0.896,1.15-1.362
			c0.406-0.454,0.792-0.944,1.167-1.46c0.376-0.515,0.793-1.016,1.158-1.569c1.552-2.151,2.95-4.657,4.127-7.412
			c0.572-1.387,1.058-2.845,1.518-4.348c0.396-1.521,0.745-3.09,0.979-4.713c0.47-3.243,0.537-6.679,0.155-10.159
			c-0.366-3.478-1.013-7.021-1.926-10.524c-0.916-3.503-2.144-6.944-3.589-10.224c-0.756-1.614-1.41-3.322-2.037-5.01
			c-0.245-0.861-0.479-1.721-0.743-2.571c-0.243-0.854-0.371-1.72-0.575-2.571c-0.092-0.428-0.184-0.854-0.275-1.278
			c-0.062-0.427-0.125-0.852-0.188-1.274c-0.117-0.847-0.265-1.688-0.353-2.522c-0.128-1.666-0.297-3.309-0.28-4.898
			c-0.06-3.189,0.226-6.183,0.498-8.935c0.319-2.749,0.706-5.251,1.128-7.455c0.416-2.203,0.863-4.107,1.26-5.667
			c0.401-1.559,0.761-2.772,1.018-3.597c0.271-0.82,0.417-1.257,0.417-1.257L228.248,4.089z"/>
	</g>
	<g>
		<path fill="#E17D74" d="M191.621,17.313c0,0,0.224,0.239,0.644,0.688c0.422,0.442,1.076,1.053,1.868,1.9
			c0.394,0.423,0.812,0.936,1.124,1.588c0.315,0.646,0.503,1.441,0.469,2.268c-0.023,1.666-0.601,3.429-1.282,5.283
			c-0.343,0.92-0.699,1.879-1.068,2.872c-0.327,1.002-0.655,2.019-0.917,3.101c-0.568,2.15-0.921,4.476-1.046,6.885
			c-0.258,4.827,0.672,9.984,2.609,14.755c0.458,1.19,1.045,2.364,1.537,3.6c0.515,1.276,0.898,2.537,1.243,3.823
			c0.678,2.564,1.019,5.16,1.138,7.679c0.047,2.521-0.079,4.97-0.521,7.25c-0.422,2.279-1.052,4.4-1.905,6.251
			c-0.831,1.859-1.883,3.433-2.972,4.68c-1.088,1.254-2.253,2.146-3.287,2.718c-1.027,0.586-1.896,0.905-2.496,1.077
			c-0.604,0.152-0.927,0.232-0.927,0.232l-0.055-0.191c0,0,0.299-0.129,0.858-0.369c0.546-0.263,1.344-0.659,2.231-1.337
			c0.888-0.672,1.874-1.606,2.784-2.849c0.915-1.24,1.711-2.8,2.384-4.571c0.673-1.774,1.156-3.793,1.475-5.953
			c0.302-2.163,0.446-4.478,0.348-6.867c-0.063-2.389-0.348-4.856-0.886-7.308c-0.279-1.216-0.611-2.46-1.032-3.622
			c-0.43-1.207-0.974-2.401-1.414-3.674c-1.865-4.996-2.684-10.412-2.27-15.397c0.205-2.488,0.62-4.879,1.293-7.06
			c0.309-1.094,0.696-2.154,1.065-3.15c0.407-0.979,0.801-1.926,1.179-2.834c0.74-1.792,1.36-3.496,1.438-5.038
			c0.133-1.562-0.607-2.782-1.352-3.62c-0.741-0.856-1.381-1.502-1.79-1.965c-0.402-0.464-0.616-0.712-0.616-0.712L191.621,17.313z"
			/>
	</g>
	<g>
		<path fill="#E17D74" d="M116.454,82.724c0,0,0.019,0.26,0.054,0.745c0.032,0.224-0.001,0.598-0.012,0.991
			c-0.01,0.201-0.02,0.416-0.031,0.646c-0.028,0.211-0.057,0.435-0.088,0.672c-0.056,0.475-0.13,0.996-0.257,1.55
			c-0.105,0.561-0.238,1.16-0.425,1.788c-0.157,0.636-0.373,1.298-0.624,1.988c-0.218,0.7-0.55,1.402-0.866,2.144
			c-0.321,0.736-0.759,1.477-1.163,2.232c-0.435,0.73-0.871,1.439-1.226,2.21c-0.738,1.525-1.186,3.299-1.478,5.182
			c-0.313,1.879-0.417,3.876-0.491,5.901c-0.049,2.029-0.051,4.099,0.032,6.168c0.041,2.071,0.194,4.141,0.306,6.179
			c0.161,2.037,0.318,4.042,0.471,5.981c0.371,3.876,0.744,7.493,1.12,10.587c0.338,3.1,0.704,5.671,0.925,7.477
			c0.231,1.804,0.363,2.835,0.363,2.835s-0.163-1.026-0.448-2.822c-0.275-1.798-0.719-4.359-1.15-7.448
			c-0.468-3.084-0.95-6.69-1.439-10.562c-0.211-1.939-0.43-3.944-0.652-5.98c-0.173-2.043-0.391-4.115-0.494-6.2
			c-0.146-2.08-0.207-4.17-0.22-6.231c0.014-2.062,0.057-4.101,0.324-6.076c0.245-1.97,0.665-3.903,1.433-5.626
			c0.368-0.864,0.822-1.652,1.224-2.377c0.364-0.738,0.739-1.41,1.02-2.111c0.272-0.701,0.563-1.36,0.747-2.025
			c0.216-0.652,0.399-1.276,0.527-1.876c0.158-0.593,0.264-1.153,0.345-1.674c0.104-0.52,0.156-0.996,0.193-1.426
			c0.022-0.215,0.043-0.418,0.063-0.609c0.003-0.175,0.005-0.339,0.008-0.491c-0.002-0.312,0.037-0.539-0.006-0.8
			c-0.05-0.485-0.076-0.743-0.076-0.743L116.454,82.724z"/>
	</g>
	<g>
		<path fill="#E17D74" d="M235.905,82.962c0.011-0.021-0.064,0.307-0.089,0.688c-0.035,0.401-0.064,1.092-0.011,1.949
			c0.105,1.72,0.46,4.25,1.575,7.026c0.276,0.699,0.611,1.38,1.007,2.099c0.404,0.722,0.853,1.519,1.221,2.38
			c0.763,1.723,1.175,3.656,1.416,5.623c0.263,1.975,0.305,4.01,0.317,6.07c-0.015,2.059-0.076,4.146-0.223,6.225
			c-0.104,2.083-0.322,4.152-0.495,6.193c-0.223,2.034-0.441,4.037-0.653,5.975c-0.25,1.932-0.492,3.8-0.722,5.57
			c-0.254,1.768-0.494,3.438-0.717,4.979c-0.432,3.086-0.875,5.645-1.149,7.44c-0.285,1.794-0.448,2.819-0.448,2.819
			s0.132-1.03,0.363-2.832c0.221-1.804,0.586-4.373,0.924-7.469c0.175-1.546,0.365-3.222,0.565-4.994
			c0.176-1.774,0.361-3.646,0.553-5.581c0.153-1.938,0.311-3.94,0.472-5.976c0.11-2.036,0.266-4.104,0.306-6.172
			c0.084-2.067,0.082-4.135,0.035-6.161c-0.073-2.023-0.176-4.019-0.486-5.896c-0.287-1.882-0.729-3.656-1.462-5.182
			c-0.357-0.77-0.781-1.477-1.22-2.206c-0.438-0.739-0.843-1.504-1.161-2.245c-1.298-2.981-1.753-5.658-1.928-7.546
			c-0.085-0.954-0.082-1.695-0.049-2.264c0.034-0.59,0.084-0.771,0.078-0.794L235.905,82.962z"/>
	</g>
	<g>
	</g>
	<g>
	</g>
	<g>
	</g>
	<g>
	</g>
	<g>
	</g>
	<g>
	</g>
</g>
</svg>
