<?xml version="1.0" encoding="utf-8"?>
<!-- Generator: Adobe Illustrator 16.0.3, SVG Export Plug-In . SVG Version: 6.00 Build 0)  -->
<!DOCTYPE svg PUBLIC "-//W3C//DTD SVG 1.1//EN" "http://www.w3.org/Graphics/SVG/1.1/DTD/svg11.dtd">
<svg version="1.1" xmlns="http://www.w3.org/2000/svg" xmlns:xlink="http://www.w3.org/1999/xlink" x="0px" y="0px" width="350px"
	 height="150px" viewBox="0 0 350 150" enable-background="new 0 0 350 150" xml:space="preserve">
<g id="Layer_2">
</g>
<g id="Layer_1">
	<path fill="#ECECEC" d="M115.301,134c0,0-2.199-27.826,3.301-26.913s22.027,1.155,9-8.087s-8.678-14.08-15.089-4.04
		s-0.194,41.54-0.194,41.54L115.301,134z"/>
	<path fill="#ECECEC" d="M234.801,134c0,0,2.199-27.826-3.301-26.913s-22.027,1.155-9-8.087s8.678-14.08,15.089-4.04
		s0.194,41.54,0.194,41.54L234.801,134z"/>
	<path fill="#ECECEC" d="M116.235,63.749c-0.199,0.579-10.73,46.178,45.801,43.198s-8.718,0.892-15.422-6.705
		s-29.359-21.898-22.575-33.815c6.784-11.917,20.191-38.73,14.083-46.03s-11.204-12.212-13.87-4.766s2.99,19.806-0.214,28.6
		S116.235,63.749,116.235,63.749z"/>
	<path fill="#ECECEC" d="M155.478,26.767c0,0,8.309,12.516,1.326,30.937s-2.238,29.9,4.067,34.353s-14.907-2.434-17.662-10.974
		c-2.755-8.541,7.713-23.691,7.713-33.333S152.043,24.242,155.478,26.767z"/>
	<path fill="#ECECEC" d="M195.306,26.767c0,0-8.31,12.516-1.326,30.937s2.237,29.9-4.067,34.353s14.906-2.434,17.662-10.974
		c2.754-8.541-7.714-23.691-7.714-33.333S198.74,24.242,195.306,26.767z"/>
	<g>
		<path fill="#E17D74" d="M175.629,45.965c0,0-0.234,0.079-0.625,0.253c-0.384,0.177-0.954,0.448-1.471,0.903
			c-0.248,0.228-0.442,0.542-0.385,0.775c0.044,0.256,0.321,0.453,0.694,0.75c0.457,0.322,0.811,1.04,0.75,1.693
			c-0.038,0.651-0.282,1.179-0.498,1.653l-0.305,0.654c-0.039,0.093-0.074,0.189-0.077,0.233c-0.019,0.036,0.059,0.06,0-0.242
			c-0.049-0.159-0.145-0.272-0.238-0.333c-0.04-0.044-0.113-0.063-0.092-0.068c-0.017-0.013,0.059-0.012,0.134-0.027
			c0.15-0.019,0.359-0.065,0.552-0.11c0.079-0.042,0.424-0.122,0.564-0.183c0.094-0.08,0.21-0.103,0.273-0.187
			c0.186-0.142,0.13-0.197,0.109-0.234c-0.023-0.044-0.045-0.159-0.11-0.305c-0.071-0.148-0.146-0.295-0.233-0.417
			c-0.079-0.122-0.155-0.215-0.202-0.272c-0.054-0.063-0.06-0.062-0.055-0.055l2.432-1.757c0.006,0.007,0.069,0.108,0.139,0.239
			c0.071,0.139,0.172,0.335,0.275,0.602c0.106,0.261,0.215,0.605,0.296,1.035c0.068,0.433,0.11,1.014-0.122,1.676
			c-0.217,0.674-0.835,1.276-1.408,1.503c-0.287,0.161-0.61,0.215-0.924,0.302c-0.288,0.046-0.391,0.039-0.763,0.087
			c-0.263,0.008-0.52,0.02-0.843-0.006c-0.161-0.014-0.326-0.026-0.574-0.1c-0.099-0.023-0.278-0.101-0.426-0.196
			c-0.192-0.134-0.369-0.333-0.462-0.609c-0.137-0.536,0.021-0.76,0.082-0.949c0.083-0.184,0.164-0.303,0.243-0.424l0.442-0.612
			c0.27-0.371,0.501-0.73,0.582-1.046c0.079-0.309,0.045-0.575-0.194-0.859c-0.264-0.33-0.748-0.764-0.732-1.403
			c0.039-0.642,0.483-0.972,0.796-1.181c0.687-0.4,1.292-0.545,1.713-0.652C175.385,45.998,175.629,45.965,175.629,45.965z"/>
	</g>
	<g>
		<path fill="#E17D74" d="M122.564,3.992c0,0,0.198,0.388,0.52,1.125c0.313,0.739,0.773,1.827,1.25,3.238
			c0.994,2.814,2.166,6.91,2.952,11.958c0.395,2.522,0.706,5.282,0.799,8.228c0.077,2.945-0.197,6.084-0.866,9.278
			c-0.678,3.195-1.604,6.443-2.866,9.623c-0.631,1.614-1.387,3.119-2.073,4.638c-0.692,1.526-1.354,3.069-1.935,4.643
			c-1.194,3.132-2.147,6.341-2.981,9.37c-0.841,3.022-1.492,5.944-1.429,8.633c0.036,2.686,0.62,5.046,1.628,7.172
			c0.992,2.132,2.421,4.046,3.97,5.715c0.784,0.825,1.571,1.62,2.367,2.344c0.812,0.704,1.591,1.387,2.354,2.009
			c1.532,1.23,2.933,2.288,4.108,3.148c1.189,0.866,2.124,1.547,2.761,2.012c0.642,0.48,0.984,0.737,0.984,0.737l-0.231,0.553
			c0,0-0.426-0.064-1.222-0.212c-0.792-0.156-1.949-0.412-3.399-0.836c-1.444-0.438-3.198-1.019-5.138-1.918
			c-1.958-0.868-4.091-2.079-6.281-3.743c-2.15-1.69-4.391-3.915-5.978-6.935c-1.63-2.982-2.343-6.744-1.993-10.318
			c0.342-3.584,1.412-6.993,2.905-10.108c1.506-3.123,3.508-5.921,5.311-8.76c0.916-1.413,1.769-2.85,2.532-4.317
			c0.767-1.473,1.458-2.961,1.888-4.463c0.882-3.053,0.859-6.274,0.728-9.308c-0.187-3.054-0.429-5.98-0.537-8.774
			c-0.112-2.809-0.218-5.465-0.315-7.917c-0.223-4.928-0.38-9.087-0.406-12.03c-0.036-1.467-0.017-2.634-0.016-3.43
			c0.017-0.799,0.026-1.226,0.026-1.226L122.564,3.992z"/>
	</g>
	<g>
		<path fill="#E17D74" d="M158.937,17.48c0,0-0.211,0.25-0.608,0.72c-0.403,0.47-1.038,1.126-1.763,1.987
			c-0.729,0.85-1.425,2.03-1.284,3.552c0.088,1.507,0.717,3.197,1.47,4.973c0.385,0.906,0.787,1.85,1.203,2.826
			c0.377,0.995,0.779,2.066,1.099,3.164c0.696,2.189,1.127,4.595,1.353,7.104c0.452,5.024-0.337,10.505-2.186,15.557
			c-0.221,0.636-0.457,1.265-0.708,1.885l-0.348,0.9c-0.11,0.3-0.249,0.621-0.335,0.904c-0.403,1.132-0.72,2.374-0.977,3.573
			c-0.493,2.426-0.768,4.86-0.816,7.217c-0.158,4.709,0.425,9.129,1.67,12.649c0.628,1.754,1.39,3.291,2.251,4.533
			c0.851,1.249,1.792,2.199,2.649,2.885c0.856,0.692,1.625,1.129,2.16,1.41c0.549,0.263,0.841,0.402,0.841,0.402l-0.082,0.289
			c0,0-0.328-0.069-0.943-0.199c-0.611-0.153-1.509-0.434-2.568-1.004c-1.063-0.559-2.274-1.435-3.421-2.682
			c-1.143-1.245-2.229-2.842-3.104-4.719c-0.898-1.869-1.564-4.017-2.012-6.326c-0.469-2.308-0.636-4.792-0.564-7.346
			c0.134-2.552,0.485-5.181,1.208-7.771c0.367-1.301,0.765-2.565,1.298-3.871c0.125-0.334,0.261-0.607,0.392-0.915l0.406-0.912
			c0.27-0.58,0.523-1.167,0.762-1.758c1.955-4.714,2.913-9.808,2.693-14.594c-0.104-2.39-0.44-4.699-0.985-6.841
			c-0.252-1.079-0.566-2.083-0.884-3.087c-0.36-0.995-0.709-1.957-1.043-2.879c-0.669-1.869-1.239-3.646-1.251-5.347
			c-0.029-0.843,0.169-1.663,0.498-2.322c0.328-0.666,0.76-1.18,1.161-1.601c0.809-0.844,1.468-1.443,1.895-1.879
			c0.425-0.443,0.652-0.68,0.652-0.68L158.937,17.48z"/>
	</g>
	<g>
		<path fill="#E17D74" d="M191.658,17.28c0,0,0.228,0.236,0.652,0.68c0.427,0.436,1.087,1.035,1.896,1.878
			c0.4,0.421,0.833,0.936,1.16,1.601c0.329,0.659,0.527,1.479,0.498,2.322c-0.012,1.701-0.581,3.478-1.25,5.347
			c-0.335,0.923-0.683,1.884-1.044,2.879c-0.317,1.004-0.632,2.008-0.884,3.087c-0.545,2.142-0.88,4.452-0.984,6.841
			c-0.221,4.787,0.737,9.88,2.693,14.595c0.238,0.591,0.492,1.178,0.762,1.758l0.406,0.912c0.13,0.307,0.267,0.58,0.391,0.915
			c0.533,1.306,0.932,2.569,1.299,3.871c0.722,2.59,1.073,5.219,1.207,7.771c0.073,2.554-0.095,5.038-0.563,7.346
			c-0.448,2.311-1.114,4.457-2.013,6.327c-0.876,1.876-1.962,3.473-3.104,4.718c-1.147,1.247-2.358,2.123-3.422,2.682
			c-1.06,0.57-1.957,0.851-2.568,1.004c-0.615,0.13-0.943,0.199-0.943,0.199l-0.082-0.289c0,0,0.293-0.14,0.842-0.402
			c0.534-0.281,1.304-0.718,2.159-1.41c0.858-0.686,1.799-1.635,2.649-2.885c0.861-1.242,1.623-2.779,2.252-4.533
			c1.245-3.52,1.829-7.939,1.671-12.648c-0.048-2.357-0.322-4.791-0.816-7.217c-0.257-1.2-0.574-2.441-0.977-3.573
			c-0.087-0.284-0.226-0.604-0.335-0.905l-0.349-0.9c-0.252-0.621-0.487-1.25-0.708-1.885c-1.849-5.052-2.639-10.533-2.187-15.558
			c0.226-2.508,0.658-4.914,1.354-7.103c0.32-1.098,0.722-2.169,1.099-3.164c0.416-0.977,0.817-1.92,1.203-2.826
			c0.753-1.777,1.382-3.466,1.47-4.974c0.142-1.522-0.556-2.702-1.284-3.552c-0.726-0.861-1.36-1.518-1.764-1.987
			c-0.396-0.47-0.607-0.72-0.607-0.72L191.658,17.28z"/>
	</g>
	<g>
		<path fill="#E17D74" d="M117.984,82.513c0,0,0.012,0.292,0.035,0.839c0.02,0.729-0.034,1.487-0.128,2.438
			c-0.186,1.859-0.507,4.163-0.343,7.013c0.026,0.355,0.038,0.719,0.081,1.089c0.018,0.186,0.036,0.372,0.054,0.561l0.042,0.417
			l0.021,0.31c0.031,0.747-0.03,1.37-0.143,1.894c-0.104,0.554-0.248,1.033-0.391,1.502c-0.597,1.805-1.193,3.399-1.672,5.197
			c-0.964,3.552-1.518,7.538-1.81,11.572c-0.566,8.084-0.171,16.303,0.257,22.432c0.212,3.069,0.446,5.626,0.619,7.414
			c0.175,1.789,0.275,2.812,0.275,2.812s-0.191-1.01-0.526-2.776c-0.332-1.768-0.794-4.295-1.281-7.344
			c-0.977-6.095-2.117-14.271-2.283-22.615c-0.07-4.168,0.122-8.394,0.825-12.363c0.336-1.966,0.867-3.922,1.237-5.509
			c0.08-0.384,0.151-0.749,0.174-1.043c0.044-0.32,0.002-0.546,0.004-0.627l-0.049-0.307l-0.012-0.076l-0.006-0.038l-0.003-0.019
			c-0.005-0.033,0.03,0.218,0.014,0.103l-0.032-0.161c-0.043-0.215-0.085-0.428-0.127-0.638c-0.09-0.42-0.148-0.84-0.219-1.248
			c-0.525-3.282-0.416-6.128-0.418-7.847c0.005-0.844-0.033-1.499-0.072-1.729c-0.006-0.094-0.045-0.334-0.062-0.444
			c-0.019-0.123-0.028-0.187-0.028-0.187L117.984,82.513z"/>
	</g>
	<g>
		<g>
			<path fill="#E17D74" d="M225.889,4.122c0,0,0.009,0.426,0.025,1.226c0.002,0.795,0.021,1.962-0.016,3.43
				c-0.026,2.943-0.183,7.102-0.405,12.03c-0.098,2.451-0.204,5.107-0.316,7.917c-0.107,2.794-0.35,5.721-0.536,8.774
				c-0.132,3.034-0.154,6.255,0.728,9.308c0.43,1.501,1.121,2.99,1.888,4.463c0.763,1.468,1.615,2.904,2.532,4.317
				c1.802,2.839,3.804,5.637,5.311,8.76c1.493,3.115,2.562,6.524,2.904,10.109c0.35,3.572-0.363,7.335-1.993,10.316
				c-1.587,3.021-3.828,5.245-5.978,6.936c-2.19,1.664-4.324,2.875-6.281,3.743c-1.94,0.899-3.694,1.48-5.139,1.918
				c-1.45,0.424-2.606,0.68-3.399,0.836c-0.796,0.147-1.222,0.212-1.222,0.212l-0.232-0.553c0,0,0.343-0.257,0.984-0.737
				c0.637-0.465,1.571-1.146,2.762-2.012c1.175-0.86,2.575-1.918,4.107-3.148c0.764-0.622,1.542-1.305,2.354-2.009
				c0.795-0.724,1.582-1.519,2.366-2.344c1.55-1.668,2.979-3.583,3.971-5.715c1.008-2.125,1.591-4.486,1.627-7.172
				c0.062-2.689-0.588-5.611-1.429-8.633c-0.834-3.029-1.787-6.238-2.981-9.37c-0.582-1.574-1.243-3.117-1.935-4.643
				c-0.687-1.52-1.441-3.024-2.073-4.638c-1.261-3.18-2.188-6.428-2.865-9.623c-0.669-3.194-0.943-6.333-0.866-9.278
				c0.094-2.946,0.404-5.706,0.799-8.228c0.787-5.048,1.958-9.144,2.952-11.958c0.477-1.411,0.938-2.499,1.251-3.238
				c0.322-0.737,0.52-1.125,0.52-1.125L225.889,4.122z"/>
		</g>
		<g>
			<path fill="#E17D74" d="M235.852,83.132c0,0-0.01,0.063-0.029,0.187c-0.017,0.113-0.056,0.352-0.062,0.446
				c-0.039,0.234-0.077,0.892-0.072,1.739c-0.002,1.729,0.108,4.588-0.426,7.884c-0.069,0.411-0.131,0.831-0.221,1.253
				c-0.042,0.212-0.085,0.426-0.128,0.641l-0.016,0.081l-0.004,0.02c-0.02,0.142,0.021-0.169,0.017-0.13l-0.006,0.038l-0.022,0.153
				c-0.012,0.085-0.039,0.243-0.037,0.27c0.007-0.037-0.022,0.231,0.04,0.506c0.045,0.278,0.144,0.629,0.262,1.004
				c0.516,1.541,1.244,3.459,1.754,5.409c1.056,3.942,1.511,8.203,1.628,12.403c0.047,2.102,0.024,4.195-0.062,6.248
				c-0.083,2.053-0.23,4.063-0.399,6.003c-0.181,1.939-0.386,3.808-0.608,5.574c-0.236,1.765-0.447,3.433-0.695,4.965
				c-0.464,3.067-0.919,5.609-1.249,7.386c-0.333,1.774-0.523,2.789-0.523,2.789s0.1-1.027,0.273-2.824
				c0.171-1.797,0.398-4.365,0.586-7.448c0.111-1.54,0.173-3.213,0.251-4.978c0.063-1.766,0.102-3.626,0.109-5.549
				c-0.004-1.922-0.035-3.905-0.133-5.912c-0.095-2.007-0.254-4.036-0.479-6.049c-0.471-4.021-1.268-7.964-2.529-11.408
				c-0.631-1.747-1.376-3.269-2.148-5.028c-0.188-0.455-0.378-0.933-0.533-1.491c-0.154-0.559-0.278-1.139-0.267-2.01l0.017-0.35
				l0.01-0.154l0.002-0.038l0.023-0.187l0.007-0.071c0.019-0.19,0.036-0.378,0.055-0.564c0.042-0.371,0.057-0.736,0.082-1.094
				c0.17-2.862-0.153-5.177-0.339-7.043c-0.096-0.953-0.149-1.715-0.13-2.446c0.011-0.286,0.019-0.505,0.024-0.653
				c0.007-0.125,0.01-0.189,0.01-0.189L235.852,83.132z"/>
		</g>
	</g>
	<g>
	</g>
	<g>
	</g>
	<g>
	</g>
	<g>
	</g>
	<g>
	</g>
	<g>
	</g>
</g>
</svg>
