<?xml version="1.0" encoding="utf-8"?>
<!-- Generator: Adobe Illustrator 16.0.3, SVG Export Plug-In . SVG Version: 6.00 Build 0)  -->
<!DOCTYPE svg PUBLIC "-//W3C//DTD SVG 1.1//EN" "http://www.w3.org/Graphics/SVG/1.1/DTD/svg11.dtd">
<svg version="1.1" id="Layer_1" xmlns="http://www.w3.org/2000/svg" xmlns:xlink="http://www.w3.org/1999/xlink" x="0px" y="0px"
	 width="350px" height="150px" viewBox="-150 -50 350 150" enable-background="new -150 -50 350 150" xml:space="preserve">
<path fill="#E17D74" d="M73.314,47.979c-4.496-5.496-7.386-9.818-14.047-12.328c-8.298-3.125-15.151-0.131-23.75,0.895
	c-8.066,0.963-16.131,1.535-24.24,0.832c-8.097-0.705-16.975-5.58-25.035-3.727c-13.248,3.047-22.788,11.816-21.835,25.998
	c0.42,6.26,3.682,9.081,4.869,15.238c1.096,5.676,10.368-3.987,11.777-5.233c4.961-4.385,9.265-7.389,15.166-10.279
	c4.762-2.333,8.181-8.385,13.154-9.832c3.944-1.147,11.532,1.412,16.274,0.75c6.958-0.974,8.827,3.68,14.298,7.618
	c4.736,3.409,10.758,5.401,15.743,8.52c3.848,2.403,9.471,11.401,13.763,9.829c1.735-1.024,2.06-8.747,2.287-10.61
	C72.294,61.096,76.58,51.97,73.314,47.979C69.34,43.121,77.292,52.84,73.314,47.979z"/>
<path fill="#ECECEC" d="M80.314,33.152C74.212-6.485,46.16-43.685,39.453-43.685s-6.099,17.076-9.756,15.856
	c-3.657-1.219-5.468-6.479-5.489-9.145c-0.01-1.316,0.93-4.331,0-5.26c-1.249-1.249-5.812-1.248-7.061,0
	c-0.93,0.93,0.01,3.944,0,5.26c-0.021,2.666-1.83,7.926-5.488,9.145c-3.657,1.222-3.049-15.856-9.757-15.856
	c-6.711,0-34.757,37.199-40.86,76.837c-6.098,39.644,53.667,11.592,53.054-20.733c-0.606-32.17,2.334-40.78,6.582-40.78
	c3.987,0,7.184,8.61,6.58,40.78C26.647,44.744,86.41,72.796,80.314,33.152z"/>
</svg>
