<?xml version="1.0" encoding="utf-8"?>
<!-- Generator: Adobe Illustrator 16.0.3, SVG Export Plug-In . SVG Version: 6.00 Build 0)  -->
<!DOCTYPE svg PUBLIC "-//W3C//DTD SVG 1.1//EN" "http://www.w3.org/Graphics/SVG/1.1/DTD/svg11.dtd">
<svg version="1.1" id="Layer_1" xmlns="http://www.w3.org/2000/svg" xmlns:xlink="http://www.w3.org/1999/xlink" x="0px" y="0px"
	 width="472.477px" height="676.466px" viewBox="0 0 472.477 676.466" enable-background="new 0 0 472.477 676.466"
	 xml:space="preserve">
<g>
	<circle fill="#B0D5F4" cx="332.58" cy="352.551" r="1.6"/>
	<circle opacity="0.6" fill="#B0D5F4" cx="115.8" cy="559.293" r="1.6"/>
	<circle opacity="0.2" fill="#B0D5F4" cx="224.19" cy="430.972" r="1.6"/>
	<circle fill="#B0D5F4" cx="327.655" cy="44.143" r="1.6"/>
	<circle fill="#B0D5F4" cx="110.873" cy="302.651" r="1.6"/>
	<circle fill="#B0D5F4" cx="381.849" cy="466.613" r="1.6"/>
	<circle opacity="0.6" fill="#B0D5F4" cx="219.263" cy="523.646" r="1.6"/>
	<circle fill="#B0D5F4" cx="352.288" cy="509.389" r="0.7"/>
	<circle opacity="0.6" fill="#B0D5F4" cx="268.531" cy="616.321" r="0.7"/>
	<circle fill="#B0D5F4" cx="263.605" cy="502.26" r="0.7"/>
	<circle opacity="0.3" fill="#B0D5F4" cx="401.555" cy="110.169" r="0.7"/>
	<circle fill="#B0D5F4" cx="51.753" cy="217.103" r="0.7"/>
	<circle opacity="0.7" fill="#B0D5F4" cx="258.678" cy="152.942" r="0.7"/>
	<circle opacity="0.4" fill="#B0D5F4" cx="46.825" cy="259.876" r="0.7"/>
	
		<circle opacity="0.2" fill="none" stroke="#B0D5F4" stroke-width="0.25" stroke-miterlimit="10" cx="91.167" cy="124.426" r="3.2"/>
	<path fill="none" stroke="#B0D5F4" stroke-width="0.25" stroke-miterlimit="10" d="M84.171,388.197c0,1.141,0.925,2.07,2.066,2.07
		s2.071-0.93,2.071-2.07c0-1.143-0.929-2.067-2.071-2.067S84.171,387.055,84.171,388.197z"/>
	<path opacity="0.3" fill="none" stroke="#B0D5F4" stroke-width="0.25" stroke-miterlimit="10" d="M210.184,77.761
		c0,3.385,2.75,6.133,6.133,6.133s6.133-2.748,6.133-6.133s-2.75-6.133-6.133-6.133S210.184,74.376,210.184,77.761z"/>
	<circle fill="none" stroke="#B0D5F4" stroke-width="0.5" stroke-miterlimit="10" cx="32.046" cy="651.968" r="3.925"/>
	
		<circle opacity="0.4" fill="none" stroke="#B0D5F4" stroke-width="0.5" stroke-miterlimit="10" cx="71.461" cy="366.809" r="3.45"/>
	<circle fill="#B0D5F4" cx="376.921" cy="131.555" r="1.6"/>
	<circle fill="#B0D5F4" cx="322.728" cy="359.68" r="1.6"/>
	<circle opacity="0.7" fill="#B0D5F4" cx="193.005" cy="116.107" r="1.6"/>
	<circle opacity="0.3" fill="#B0D5F4" cx="371.994" cy="74.524" r="1.601"/>
	<circle opacity="0.7" fill="#B0D5F4" cx="188.078" cy="144.624" r="1.6"/>
	<circle fill="#B0D5F4" cx="105.948" cy="345.422" r="1.6"/>
	<circle fill="#B0D5F4" cx="253.752" cy="309.778" r="0.7"/>
	<circle fill="#B0D5F4" cx="347.361" cy="402.455" r="0.7"/>
	<circle fill="#B0D5F4" cx="150.288" cy="281.263" r="0.7"/>
	<circle fill="#B0D5F4" cx="416.338" cy="274.134" r="1.601"/>
	<circle opacity="0.7" fill="#B0D5F4" cx="183.15" cy="151.751" r="1.6"/>
	<circle fill="#B0D5F4" cx="199.557" cy="267.005" r="1.6"/>
	<circle fill="#B0D5F4" cx="445.896" cy="252.747" r="0.7"/>
	<circle opacity="0.7" fill="#B0D5F4" cx="248.826" cy="224.232" r="0.7"/>
	<circle fill="#B0D5F4" cx="317.8" cy="473.742" r="1.6"/>
	<circle fill="#B0D5F4" cx="27.119" cy="438.102" r="1.6"/>
	<circle opacity="0.2" fill="#B0D5F4" cx="194.63" cy="480.871" r="1.6"/>
	<circle fill="#B0D5F4" cx="22.192" cy="459.488" r="1.6"/>
	<circle opacity="0.2" fill="#B0D5F4" cx="145.363" cy="445.23" r="0.7"/>
	<circle fill="#B0D5F4" cx="41.898" cy="409.584" r="0.7"/>
	<path fill="#B0D5F4" d="M392.392,296.965c0.797-0.379,1.134-1.333,0.759-2.131c-0.384-0.798-1.337-1.137-2.134-0.758
		c-0.799,0.379-1.141,1.333-0.758,2.131C390.634,297.005,391.593,297.345,392.392,296.965z"/>
	<path opacity="0.4" fill="none" stroke="#B0D5F4" stroke-width="0.25" stroke-miterlimit="10" d="M77.271,340.164
		c1.033-0.492,1.475-1.726,0.983-2.759c-0.492-1.031-1.725-1.471-2.758-0.979c-1.033,0.49-1.466,1.725-0.979,2.756
		C75.009,340.218,76.242,340.655,77.271,340.164z"/>
	<circle opacity="0.4" fill="#B0D5F4" cx="61.607" cy="288.393" r="0.699"/>
	<circle opacity="0.4" fill="#B0D5F4" cx="36.971" cy="373.938" r="0.7"/>
	<circle opacity="0.2" fill="#B0D5F4" cx="140.436" cy="416.713" r="0.7"/>
	<circle fill="#B0D5F4" cx="312.874" cy="395.326" r="1.6"/>
	<circle opacity="0.2" fill="#B0D5F4" cx="189.703" cy="381.067" r="1.6"/>
	<path fill="#B0D5F4" d="M56.979,424.472c0.35-0.163,0.5-0.579,0.333-0.929c-0.167-0.351-0.583-0.5-0.934-0.334
		c-0.35,0.167-0.5,0.584-0.333,0.934C56.213,424.492,56.629,424.639,56.979,424.472z"/>
	<path fill="#B0D5F4" d="M436.726,325.482c0.8-0.379,1.142-1.333,0.758-2.131c-0.375-0.798-1.333-1.138-2.129-0.758
		c-0.796,0.379-1.137,1.333-0.758,2.131S435.93,325.861,436.726,325.482z"/>
	<path fill="#B0D5F4" d="M426.487,317.541c0.351-0.167,0.5-0.583,0.334-0.934c-0.166-0.35-0.584-0.498-0.934-0.331
		s-0.496,0.583-0.329,0.933C425.726,317.559,426.138,317.707,426.487,317.541z"/>
	<circle fill="#B0D5F4" cx="174.923" cy="331.167" r="0.701"/>
	<circle opacity="0.7" fill="#B0D5F4" cx="307.946" cy="117.297" r="1.6"/>
	<circle fill="#B0D5F4" cx="450.826" cy="181.457" r="1.6"/>
	<circle fill="#B0D5F4" cx="303.019" cy="53.136" r="1.6"/>
	<circle fill="none" stroke="#B0D5F4" stroke-width="0.25" stroke-miterlimit="10" cx="406.481" cy="160.072" r="2.068"/>
	<circle fill="none" stroke="#B0D5F4" stroke-width="0.5" stroke-miterlimit="10" cx="66.534" cy="145.813" r="3.45"/>
	<circle opacity="0.7" fill="#B0D5F4" cx="298.092" cy="138.684" r="1.6"/>
	<circle opacity="0.3" fill="#B0D5F4" cx="367.067" cy="103.041" r="1.6"/>
	<circle opacity="0.3" fill="#B0D5F4" cx="396.629" cy="60.266" r="0.7"/>
	<circle fill="#B0D5F4" cx="455.746" cy="167.201" r="0.7"/>
	<circle fill="#B0D5F4" cx="342.434" cy="24.622" r="0.7"/>
	<circle fill="#B0D5F4" cx="412.592" cy="17.493" r="1.6"/>
	<circle fill="#B0D5F4" cx="184.775" cy="188.586" r="1.6"/>
	<circle fill="#B0D5F4" cx="440.971" cy="195.715" r="0.7"/>
	<circle opacity="0.7" fill="#B0D5F4" cx="243.898" cy="174.33" r="0.7"/>
	<path fill="#B0D5F4" d="M387.465,40.322c0.796-0.375,1.134-1.333,0.759-2.129c-0.384-0.796-1.338-1.137-2.134-0.758
		c-0.8,0.379-1.142,1.333-0.759,2.129C385.706,40.363,386.665,40.705,387.465,40.322z"/>
	<path opacity="0.3" fill="none" stroke="#B0D5F4" stroke-width="0.25" stroke-miterlimit="10" d="M358.099,97.778
		c1.033-0.492,1.475-1.725,0.982-2.758c-0.491-1.029-1.725-1.467-2.758-0.975c-1.033,0.488-1.467,1.725-0.979,2.754
		C355.836,97.832,357.069,98.27,358.099,97.778z"/>
	<path fill="#B0D5F4" d="M273.759,32.382c0.35-0.167,0.5-0.583,0.334-0.934c-0.168-0.35-0.584-0.496-0.934-0.329
		c-0.351,0.163-0.5,0.579-0.334,0.929C272.992,32.399,273.409,32.549,273.759,32.382z"/>
	<path opacity="0.3" fill="#B0D5F4" d="M431.8,83.097c0.801-0.379,1.143-1.333,0.759-2.133c-0.375-0.796-1.333-1.133-2.129-0.758
		c-0.796,0.383-1.138,1.333-0.759,2.133S431.005,83.476,431.8,83.097z"/>
	<path opacity="0.3" fill="#B0D5F4" d="M421.559,68.026c0.351-0.167,0.5-0.583,0.333-0.933c-0.166-0.35-0.583-0.496-0.933-0.33
		c-0.351,0.167-0.491,0.583-0.325,0.934S421.209,68.192,421.559,68.026z"/>
	<path opacity="0.3" fill="#B0D5F4" d="M362.444,89.414c0.35-0.167,0.496-0.58,0.329-0.929c-0.167-0.35-0.583-0.5-0.934-0.333
		c-0.35,0.167-0.495,0.583-0.329,0.933C361.678,89.434,362.095,89.58,362.444,89.414z"/>
	<circle opacity="0.6" fill="#B0D5F4" cx="179.85" cy="594.935" r="1.6"/>
	<circle opacity="0.6" fill="#B0D5F4" cx="293.165" cy="630.58" r="1.6"/>
	<circle opacity="0.6" fill="#B0D5F4" cx="238.971" cy="573.551" r="0.7"/>
	<circle opacity="0.6" fill="#B0D5F4" cx="288.24" cy="552.164" r="1.6"/>
	<path opacity="0.6" fill="none" stroke="#B0D5F4" stroke-width="0.25" stroke-miterlimit="10" d="M165.955,611.06
		c1.033-0.492,1.475-1.726,0.983-2.759c-0.492-1.029-1.725-1.467-2.758-0.975c-1.033,0.487-1.467,1.725-0.979,2.754
		C163.692,611.113,164.925,611.551,165.955,611.06z"/>
	<path opacity="0.6" fill="#B0D5F4" d="M155.515,588.438c0.35-0.167,0.5-0.583,0.333-0.934c-0.167-0.35-0.583-0.496-0.933-0.329
		c-0.35,0.162-0.5,0.579-0.333,0.93C154.749,588.455,155.165,588.605,155.515,588.438z"/>
	<path opacity="0.6" fill="#B0D5F4" d="M278.688,602.696c0.35-0.166,0.495-0.579,0.328-0.929c-0.166-0.35-0.583-0.5-0.933-0.333
		c-0.351,0.166-0.496,0.583-0.329,0.933C277.921,602.718,278.338,602.863,278.688,602.696z"/>
	<circle fill="none" stroke="#B0D5F4" stroke-width="0.25" stroke-miterlimit="10" cx="81.313" cy="202.845" r="2.069"/>
	
		<circle opacity="0.2" fill="none" stroke="#B0D5F4" stroke-width="0.5" stroke-miterlimit="10" cx="125.655" cy="452.359" r="3.925"/>
	<circle opacity="0.6" fill="#B0D5F4" cx="101.021" cy="637.709" r="1.6"/>
	<circle opacity="0.6" fill="#B0D5F4" cx="135.509" cy="537.905" r="0.7"/>
	<circle fill="#B0D5F4" cx="337.506" cy="495.13" r="0.7"/>
	<circle fill="#B0D5F4" cx="140.58" cy="32.551" r="1.6"/>
	<circle fill="#B0D5F4" cx="130.728" cy="39.68" r="1.6"/>
	<circle fill="#B0D5F4" cx="155.361" cy="82.455" r="0.7"/>
	<circle fill="#B0D5F4" cx="125.8" cy="153.743" r="1.6"/>
	<circle fill="#B0D5F4" cx="120.873" cy="75.326" r="1.6"/>
	<circle fill="#B0D5F4" cx="145.507" cy="175.13" r="0.7"/>
	<circle fill="#B0D5F4" cx="17.265" cy="580.68" r="0.7"/>
	<path opacity="0.8" fill="none" stroke="#B0D5F4" stroke-width="0.25" stroke-miterlimit="10" d="M114.594,545.034
		c0,3.384,2.75,6.134,6.133,6.134s6.133-2.75,6.133-6.134s-2.75-6.134-6.133-6.134S114.594,541.65,114.594,545.034z"/>
	<circle opacity="0.6" fill="#B0D5F4" cx="283.313" cy="530.775" r="1.6"/>
	<circle opacity="0.6" fill="#B0D5F4" cx="96.094" cy="566.422" r="1.6"/>
	<circle opacity="0.6" fill="#B0D5F4" cx="234.044" cy="644.838" r="0.7"/>
	<circle opacity="0.6" fill="#B0D5F4" cx="278.997" cy="203.646" r="1.6"/>
	<circle opacity="0.6" fill="#B0D5F4" cx="328.265" cy="296.322" r="0.7"/>
	<circle fill="#B0D5F4" cx="323.338" cy="182.259" r="0.7"/>
	<circle opacity="0.6" fill="#B0D5F4" cx="298.705" cy="253.551" r="0.7"/>
	<path opacity="0.6" fill="#B0D5F4" d="M338.421,282.697c0.351-0.167,0.496-0.579,0.33-0.929c-0.167-0.35-0.584-0.5-0.934-0.333
		c-0.35,0.167-0.496,0.583-0.33,0.934C337.655,282.718,338.071,282.863,338.421,282.697z"/>
	<circle opacity="0.6" fill="#B0D5F4" cx="343.046" cy="210.776" r="1.6"/>
	<circle opacity="0.6" fill="#B0D5F4" cx="293.777" cy="324.838" r="0.7"/>
	<circle opacity="0.6" fill="#B0D5F4" cx="130.582" cy="623.451" r="0.7"/>
	<path opacity="0.6" fill="none" stroke="#B0D5F4" stroke-width="0.25" stroke-miterlimit="10" d="M167.928,516.521
		c0,1.143,0.925,2.066,2.066,2.066s2.071-0.924,2.071-2.066c0-1.142-0.929-2.07-2.071-2.07S167.928,515.38,167.928,516.521z"/>
	
		<circle opacity="0.2" fill="none" stroke="#B0D5F4" stroke-width="0.5" stroke-miterlimit="10" cx="160.142" cy="488.001" r="3.45"/>
	<circle opacity="0.2" fill="#B0D5F4" cx="420.458" cy="537.639" r="1.6"/>
	<circle opacity="0.6" fill="#B0D5F4" cx="415.53" cy="630.313" r="1.6"/>
	<circle opacity="0.2" fill="#B0D5F4" cx="390.896" cy="587.538" r="1.6"/>
	<circle opacity="0.2" fill="#B0D5F4" cx="341.629" cy="551.896" r="0.7"/>
	<circle opacity="0.2" fill="#B0D5F4" cx="385.969" cy="487.734" r="1.6"/>
	<path opacity="0.6" fill="none" stroke="#B0D5F4" stroke-width="0.25" stroke-miterlimit="10" d="M364.194,623.188
		c0,1.142,0.925,2.066,2.066,2.066s2.07-0.925,2.07-2.066s-0.929-2.071-2.07-2.071S364.194,622.047,364.194,623.188z"/>
	
		<circle opacity="0.2" fill="none" stroke="#B0D5F4" stroke-width="0.5" stroke-miterlimit="10" cx="356.409" cy="594.668" r="3.45"/>
	<circle opacity="0.2" fill="#B0D5F4" cx="425.03" cy="391.271" r="1.6"/>
	<circle opacity="0.2" fill="#B0D5F4" cx="375.763" cy="355.63" r="0.7"/>
	<path opacity="0.6" fill="none" stroke="#B0D5F4" stroke-width="0.25" stroke-miterlimit="10" d="M398.325,426.922
		c0,1.142,0.926,2.066,2.066,2.066c1.143,0,2.076-0.925,2.076-2.066s-0.934-2.07-2.076-2.07
		C399.251,424.852,398.325,425.78,398.325,426.922z"/>
	<circle opacity="0.2" fill="none" stroke="#B0D5F4" stroke-width="0.5" stroke-miterlimit="10" cx="390.542" cy="398.4" r="3.45"/>
</g>
<g>
</g>
<g>
</g>
<g>
</g>
<g>
</g>
<g>
</g>
<g>
</g>
</svg>
