<?xml version="1.0" encoding="utf-8"?>
<!-- Generator: Adobe Illustrator 16.0.3, SVG Export Plug-In . SVG Version: 6.00 Build 0)  -->
<!DOCTYPE svg PUBLIC "-//W3C//DTD SVG 1.1//EN" "http://www.w3.org/Graphics/SVG/1.1/DTD/svg11.dtd">
<svg version="1.1" id="Layer_1" xmlns="http://www.w3.org/2000/svg" xmlns:xlink="http://www.w3.org/1999/xlink" x="0px" y="0px"
	 width="350px" height="150px" viewBox="0 0 350 150" enable-background="new 0 0 350 150" xml:space="preserve">
<g>
	<path fill="#ECECEC" d="M196.067,88.266c-0.399,0-0.801-0.037-1.201-0.114c-3.966-0.767-6.833-5.021-10.152-9.945
		c-3.857-5.726-8.232-12.216-14.246-12.216c-5.987,0-8.996,4.492-12.478,9.693c-3.636,5.43-7.756,11.58-16.015,11.58
		c-8.258,0-12.378-6.15-16.013-11.58c-3.483-5.201-6.491-9.693-12.477-9.693c-5.988,0-8.995,4.492-12.479,9.693
		c-3.635,5.43-7.754,11.58-16.013,11.58c-8.258,0-12.378-6.15-16.013-11.58c-3.482-5.201-6.491-9.693-12.478-9.693
		s-8.994,4.492-12.476,9.693c-3.636,5.43-7.755,11.58-16.013,11.58s-13.142-6.15-16.775-11.58C7.758,70.482,4,65.99-2,65.99v-4.255
		c10,0,13.142,6.153,16.774,11.582c3.482,5.201,6.872,9.692,12.858,9.692c5.987,0,9.185-4.491,12.667-9.692
		c3.635-5.428,7.85-11.582,16.108-11.582c8.259,0,12.426,6.153,16.062,11.582c3.483,5.201,6.514,9.692,12.5,9.692
		s9.007-4.491,12.49-9.692c3.634-5.428,7.761-11.582,16.02-11.582c8.258,0,12.381,6.153,16.016,11.582
		c3.482,5.201,6.492,9.692,12.479,9.692c5.988,0,8.997-4.492,12.48-9.693c3.636-5.427,7.756-11.581,16.015-11.581
		c8.278,0,13.543,7.814,17.775,14.094c2.556,3.791,5.198,7.713,7.429,8.144c0.407,0.079,1.069,0.103,2.095-0.596
		c2.121-1.441,3.244-6.664,4.146-10.861c1.194-5.543,2.32-10.781,6.345-10.781c4.038,0,5.281,5.705,6.725,12.311
		c0.615,2.816,1.606,7.354,2.569,8.724c0.96-1.37,1.952-5.907,2.567-8.724c1.442-6.605,2.689-12.311,6.727-12.311
		c4.038,0,5.282,5.705,6.728,12.311c0.615,2.817,1.607,7.357,2.57,8.724c0.96-1.367,1.953-5.907,2.567-8.724
		c1.444-6.605,2.69-12.311,6.729-12.311c4.036,0,5.282,5.706,6.728,12.311c0.615,2.818,1.608,7.359,2.571,8.726
		c0.964-1.366,1.956-5.907,2.573-8.726c1.442-6.605,2.69-12.311,6.729-12.311c4.697,0,6.503,6.187,8.246,12.168
		c0.928,3.183,2.655,9.105,4.162,9.105s3.234-5.923,4.162-9.104c1.745-5.983,3.548-12.169,8.248-12.169
		c4.697,0,6.5,6.187,8.244,12.169c0.927,3.182,2.655,9.104,4.161,9.104c1.507,0,3.234-5.923,4.162-9.104
		c1.746-5.983,3.549-12.169,8.248-12.169c4.7,0,6.503,6.187,8.248,12.169c0.928,3.182,2.655,9.104,4.164,9.104
		c1.507,0,3.233-5.923,4.163-9.104c1.746-5.983,3.549-12.169,8.248-12.169c4.7,0,6.548,6.187,8.294,12.169
		c0.928,3.182,1.209,9.104,4.209,9.104v4.255c-5,0-6.549-6.186-8.293-12.168c-0.93-3.182-2.68-9.105-4.187-9.105
		c-1.51,0-3.246,5.923-4.176,9.105c-1.746,5.983-3.557,12.168-8.256,12.168c-4.697,0-6.502-6.186-8.248-12.167
		c-0.927-3.183-2.656-9.106-4.165-9.106s-3.236,5.923-4.164,9.106c-1.745,5.982-3.551,12.167-8.248,12.167
		s-6.501-6.186-8.245-12.168c-0.927-3.182-2.657-9.105-4.16-9.105c-1.508,0-3.236,5.923-4.164,9.106
		c-1.743,5.982-3.549,12.167-8.246,12.167s-6.503-6.186-8.246-12.169c-0.894-3.059-2.524-8.653-3.988-9.078
		c-1.016,1.022-2.094,5.95-2.746,8.938c-1.444,6.605-2.691,12.309-6.729,12.309c-4.037,0-5.283-5.704-6.729-12.309
		c-0.615-2.817-1.607-7.358-2.57-8.726c-0.965,1.369-1.955,5.909-2.572,8.725c-1.441,6.606-2.687,12.31-6.724,12.31
		s-5.285-5.704-6.727-12.309c-0.616-2.817-1.607-7.357-2.571-8.726c-0.963,1.369-1.954,5.909-2.57,8.726
		c-1.441,6.605-2.689,12.309-6.724,12.309c-4.038,0-5.281-5.704-6.726-12.31c-0.624-2.859-1.638-7.494-2.612-8.785
		c-0.816,1.082-1.635,4.888-2.141,7.242c-1.174,5.452-2.386,11.086-5.912,13.485C198.819,87.807,197.447,88.266,196.067,88.266z"/>
</g>
<g>
	<g>
		<path fill="#E17D74" d="M174.408,89.543c-0.041-0.03-4.155-3.06-6.321-4.77c-7.066-5.584-10.218-11.759-8.875-17.389
			c1-4.193,4.636-7.122,8.844-7.122c2.931,0,5.444,1.439,6.945,3.871c1.501-2.432,4.014-3.871,6.945-3.871
			c4.207,0,7.844,2.929,8.843,7.122c1.344,5.629-1.807,11.805-8.872,17.388c-2.169,1.711-6.281,4.74-6.323,4.771L175,89.979
			L174.408,89.543z"/>
		<path fill="#FFFFFF" d="M181.945,61.263c3.405,0,6.894,2.256,7.87,6.354c1.845,7.727-5.818,14.237-8.52,16.372
			c-2.18,1.72-6.295,4.749-6.295,4.749s-4.116-3.029-6.294-4.749c-2.702-2.135-10.365-8.645-8.522-16.372
			c0.977-4.098,4.465-6.354,7.871-6.354c2.925,0,5.789,1.665,6.945,5.255C176.158,62.927,179.021,61.263,181.945,61.263
			 M181.945,59.263c-2.79,0-5.24,1.157-6.945,3.167c-1.705-2.009-4.155-3.166-6.945-3.167c-4.672,0-8.709,3.244-9.816,7.89
			c-1.438,6.03,1.839,12.567,9.228,18.405c2.18,1.722,6.179,4.666,6.348,4.79L175,91.221l1.185-0.873
			c0.17-0.124,4.168-3.068,6.35-4.789c7.389-5.84,10.665-12.376,9.226-18.406C190.654,62.507,186.617,59.263,181.945,59.263
			L181.945,59.263z"/>
	</g>
	<path fill="#F9EAEA" d="M162.843,70.08c0.747-3.136,4.35-5.895,6.958-6.014c-0.67-0.376-1.44-0.593-2.262-0.593
		c-2.553,0-5.623,3.07-5.623,5.623c0,0.917,0.27,1.768,0.73,2.487C162.669,71.088,162.721,70.588,162.843,70.08z"/>
</g>
<g>
	<g>
		<g>
			<path fill="#E17D74" d="M193.562,62.156c0,0,2.012-1.373,3.879-2.889c0.465-0.382,1.008-0.685,1.414-1.072
				c0.395-0.397,0.693-0.84,0.912-1.255c0.457-0.812,0.562-1.552,0.562-1.552l-0.141-0.142c0,0-0.74,0.105-1.553,0.562
				c-0.414,0.22-0.857,0.518-1.255,0.913c-0.387,0.406-0.69,0.949-1.071,1.413c-1.517,1.868-2.889,3.879-2.889,3.879L193.562,62.156
				z"/>
		</g>
	</g>
	<g>
		<path fill="#E17D74" d="M174.899,56c0,0-0.451-2.479-0.699-4.872c-0.059-0.599-0.229-1.24-0.242-1.8
			c0.002-0.562,0.104-1.234,0.242-1.683c0.251-0.897,0.7-1.646,0.699-1.646h0.2c0,0,0.449,0.727,0.7,1.624
			c0.138,0.448,0.24,1.036,0.242,1.597c-0.014,0.561-0.184,1.277-0.242,1.875c-0.248,2.393-0.7,4.904-0.7,4.904H174.899z"/>
	</g>
	<g>
		<path fill="#E17D74" d="M156.438,62.156c0,0-2.012-1.373-3.879-2.889c-0.464-0.382-1.008-0.685-1.413-1.072
			c-0.396-0.397-0.693-0.84-0.913-1.255c-0.457-0.812-0.562-1.552-0.562-1.552l0.142-0.142c0,0,0.74,0.105,1.552,0.562
			c0.415,0.22,0.857,0.518,1.255,0.913c0.387,0.406,0.69,0.949,1.072,1.413c1.516,1.868,2.889,3.879,2.889,3.879L156.438,62.156z"/>
	</g>
</g>
<g>
</g>
<g>
</g>
<g>
</g>
<g>
</g>
<g>
</g>
<g>
</g>
</svg>
