<?xml version="1.0" encoding="utf-8"?>
<!-- Generator: Adobe Illustrator 16.0.3, SVG Export Plug-In . SVG Version: 6.00 Build 0)  -->
<!DOCTYPE svg PUBLIC "-//W3C//DTD SVG 1.1//EN" "http://www.w3.org/Graphics/SVG/1.1/DTD/svg11.dtd">
<svg version="1.1" id="Layer_1" xmlns="http://www.w3.org/2000/svg" xmlns:xlink="http://www.w3.org/1999/xlink" x="0px" y="0px"
	 width="50px" height="50px" viewBox="0 0 50 50" enable-background="new 0 0 50 50" xml:space="preserve">
<path fill="#4CB971" d="M48.376,40.666C45.985,25.129,34.989,10.548,32.36,10.548c-2.63,0-2.391,6.693-3.825,6.215
	c-1.434-0.478-2.151-3.585-2.151-3.585V1.704h-2.768v11.474c0,0-0.717,3.107-2.151,3.585c-1.434,0.479-1.195-6.215-3.825-6.215
	S4.016,25.129,1.624,40.666c-2.39,15.539,21.036,4.543,20.796-8.127c-0.238-12.61,0.915-15.985,2.58-15.985
	c1.563,0,2.817,3.375,2.579,15.985C27.34,45.209,50.766,56.205,48.376,40.666z"/>
<g>
</g>
<g>
</g>
<g>
</g>
<g>
</g>
<g>
</g>
<g>
</g>
</svg>
