<?xml version="1.0" encoding="utf-8"?>
<!-- Generator: Adobe Illustrator 16.0.3, SVG Export Plug-In . SVG Version: 6.00 Build 0)  -->
<!DOCTYPE svg PUBLIC "-//W3C//DTD SVG 1.1//EN" "http://www.w3.org/Graphics/SVG/1.1/DTD/svg11.dtd">
<svg version="1.1" id="Layer_1" xmlns="http://www.w3.org/2000/svg" xmlns:xlink="http://www.w3.org/1999/xlink" x="0px" y="0px"
	 width="149.436px" height="129.082px" viewBox="0 0 149.436 129.082" enable-background="new 0 0 149.436 129.082"
	 xml:space="preserve">
<g>
	<g>
		<path fill="#47633F" d="M26.525,124.846c0,0-0.123-0.004-0.354-0.013c-0.23-0.002-0.567-0.016-1-0.099
			c-0.437-0.054-0.944-0.197-1.521-0.38c-0.575-0.189-1.21-0.446-1.877-0.78c-0.666-0.334-1.375-0.729-2.077-1.217
			c-0.715-0.472-1.418-1.043-2.114-1.671c-0.692-0.633-1.351-1.353-1.945-2.154c-0.583-0.792-1.1-1.759-1.287-2.771
			c-0.131-0.457-0.161-1.031-0.211-1.53c-0.02-0.504-0.04-1.007-0.022-1.496c0.01-0.985,0.087-1.936,0.101-2.838
			c0.065-0.907-0.007-1.749-0.122-2.519c-0.137-0.769-0.487-1.386-0.934-1.863c-0.255-0.201-0.509-0.399-0.766-0.569
			c-0.289-0.131-0.562-0.254-0.819-0.37c-0.556-0.138-1.12-0.293-1.539-0.356c-0.842-0.103-1.407-0.181-1.407-0.181v-0.1
			c0,0,0.562-0.038,1.439-0.07c0.438-0.017,1.009,0.069,1.625,0.156c0.304,0.095,0.645,0.196,0.986,0.303
			c0.323,0.156,0.675,0.356,1.001,0.597c0.614,0.551,1.121,1.341,1.344,2.237c0.217,0.885,0.264,1.836,0.229,2.77
			c-0.041,0.94-0.137,1.891-0.2,2.841c-0.04,0.478-0.042,0.95-0.048,1.426c0.031,0.474,0.009,0.895,0.122,1.392
			c0.136,0.936,0.545,1.765,1.071,2.551c0.53,0.774,1.134,1.491,1.78,2.128c0.647,0.635,1.316,1.209,1.987,1.706
			c0.661,0.511,1.333,0.932,1.967,1.292c0.635,0.359,1.244,0.643,1.797,0.856c0.553,0.206,1.05,0.374,1.465,0.446
			c0.411,0.102,0.748,0.134,0.979,0.146c0.229,0.021,0.352,0.031,0.352,0.031L26.525,124.846z"/>
	</g>
	<g>
		<path fill="#47633F" d="M43.676,102.811c0,0-0.081,0.022-0.234,0.064c-0.148,0.042-0.387,0.103-0.693,0.109
			c-0.297,0.01-0.72-0.048-1.05-0.384c-0.312-0.34-0.456-0.845-0.502-1.361c-0.097-1.048,0.063-2.24,0.22-3.493
			c0.077-0.626,0.155-1.271,0.182-1.916c0.023-0.657,0.01-1.261-0.244-1.832c-0.231-0.646-0.531-1.145-0.888-1.695
			c-0.351-0.528-0.755-1.024-1.146-1.512c-0.77-0.984-1.518-1.975-1.929-2.966c-0.114-0.24-0.202-0.479-0.265-0.716
			c-0.076-0.229-0.135-0.451-0.169-0.665c-0.103-0.417-0.112-0.793-0.127-1.097c0.003-0.608,0.049-0.947,0.05-0.947l0.1-0.002
			c0,0,0.019,0.083,0.054,0.239c0.042,0.153,0.065,0.383,0.145,0.662c0.093,0.277,0.17,0.617,0.327,0.982
			c0.134,0.372,0.347,0.765,0.596,1.178c0.494,0.829,1.232,1.696,2.037,2.688c0.38,0.515,0.79,1.048,1.127,1.658
			c0.332,0.583,0.668,1.288,0.844,1.932c0.261,0.691,0.241,1.48,0.174,2.139c-0.067,0.683-0.184,1.332-0.295,1.957
			c-0.219,1.246-0.463,2.4-0.444,3.382c0.007,0.487,0.109,0.93,0.338,1.22c0.239,0.284,0.588,0.369,0.868,0.38
			c0.284,0.015,0.506-0.023,0.664-0.055c0.155-0.031,0.238-0.048,0.238-0.048L43.676,102.811z"/>
	</g>
	<g>
		<path fill="#47633F" d="M69.422,4.223c0,0-0.029,0.433-0.085,1.245c-0.03,0.406-0.086,0.908,0.008,1.488
			c0.076,0.58,0.068,1.259,0.313,1.98c0.097,0.364,0.2,0.748,0.307,1.15c0.164,0.383,0.335,0.784,0.514,1.202
			c0.159,0.427,0.394,0.838,0.646,1.26c0.255,0.419,0.472,0.882,0.795,1.3c1.154,1.764,2.757,3.534,4.529,5.435
			c1.765,1.908,3.758,3.93,5.483,6.405c0.406,0.634,0.815,1.283,1.185,1.965c0.163,0.354,0.326,0.709,0.491,1.067
			c0.08,0.18,0.17,0.356,0.241,0.541l0.173,0.572c0.114,0.383,0.23,0.769,0.346,1.156c0.088,0.417,0.135,0.79,0.204,1.19
			c0.06,0.396,0.139,0.788,0.185,1.191c0.028,0.409,0.058,0.82,0.086,1.232c0.205,3.294-0.105,6.688-0.814,10.061
			c-0.349,1.691-0.845,3.352-1.431,5.014c-0.592,1.627-1.475,3.205-2.077,4.753c-0.295,0.781-0.436,1.578-0.355,2.374
			c0.081,0.794,0.335,1.584,0.699,2.336c0.171,0.368,0.387,0.769,0.574,1.092l0.352,0.542l0.373,0.461
			c0.528,0.613,1.145,1.191,1.784,1.742c1.268,1.111,2.669,2.181,3.646,3.71c0.474,0.771,0.773,1.664,0.851,2.569
			c0.017,0.454,0.023,0.906-0.066,1.34l-0.049,0.329c-0.015,0.07-0.002,0.074-0.039,0.199l-0.045,0.146
			c-0.067,0.199-0.104,0.382-0.196,0.592c-0.759,1.756-2.138,2.72-3.158,3.839c-1.051,1.087-1.723,2.348-1.791,3.736
			c-0.019,0.686,0.056,1.395,0.201,2.049c0.156,0.741,0.384,1.286,0.71,1.862c0.64,1.136,1.836,1.686,2.979,2.396
			c1.166,0.692,2.086,1.854,2.443,3.013c0.112,0.274,0.224,0.545,0.333,0.812c0.076,0.289,0.152,0.575,0.227,0.856
			c0.154,0.563,0.286,1.109,0.354,1.637c0.364,2.109,0.457,3.951,0.66,5.45c0.088,0.752,0.187,1.42,0.319,1.99
			c0.111,0.576,0.208,1.067,0.354,1.445c0.25,0.771,0.384,1.181,0.384,1.181l-0.092,0.041c0,0-0.156-0.407-0.448-1.171
			c-0.168-0.377-0.29-0.866-0.433-1.442c-0.165-0.572-0.299-1.24-0.426-1.992c-0.292-1.498-0.463-3.346-0.882-5.395
			c-0.085-0.521-0.229-1.031-0.388-1.548c-0.077-0.26-0.154-0.523-0.233-0.79c-0.118-0.264-0.238-0.53-0.36-0.801
			c-0.4-1.102-1.158-1.973-2.233-2.614c-0.533-0.329-1.137-0.622-1.731-1.022c-0.595-0.395-1.166-0.929-1.567-1.581
			c-0.391-0.625-0.707-1.42-0.856-2.096c-0.185-0.758-0.28-1.517-0.273-2.324c0.062-0.795,0.189-1.635,0.585-2.379
			c0.372-0.746,0.885-1.408,1.439-1.998c1.094-1.151,2.398-2.184,2.941-3.473c0.076-0.16,0.125-0.379,0.188-0.566l0.046-0.146
			c-0.004,0.027,0.01-0.073,0.014-0.103l0.041-0.28c0.08-0.374,0.069-0.746,0.059-1.119c-0.066-0.74-0.302-1.46-0.704-2.121
			c-0.841-1.312-2.143-2.385-3.426-3.525c-0.646-0.573-1.28-1.178-1.864-1.876l-0.428-0.551l-0.345-0.547
			c-0.24-0.424-0.426-0.79-0.615-1.207c-0.376-0.808-0.658-1.695-0.739-2.627c-0.084-0.935,0.106-1.888,0.438-2.723
			c0.678-1.679,1.527-3.131,2.137-4.751c0.579-1.592,1.091-3.231,1.449-4.885c0.732-3.302,1.073-6.662,0.909-9.866
			c-0.023-0.399-0.046-0.797-0.069-1.193c-0.04-0.397-0.115-0.795-0.171-1.19c-0.062-0.388-0.113-0.806-0.186-1.163
			c-0.107-0.372-0.214-0.742-0.32-1.11l-0.158-0.551c-0.067-0.178-0.153-0.35-0.229-0.524c-0.155-0.348-0.31-0.693-0.463-1.037
			c-0.351-0.666-0.74-1.306-1.128-1.931c-1.656-2.452-3.611-4.497-5.351-6.432c-1.746-1.93-3.336-3.735-4.478-5.535
			c-0.319-0.426-0.534-0.9-0.786-1.328c-0.249-0.431-0.48-0.85-0.636-1.286c-0.175-0.426-0.343-0.835-0.503-1.226
			c-0.103-0.41-0.202-0.801-0.295-1.171c-0.236-0.731-0.221-1.428-0.288-2.018c-0.086-0.594-0.022-1.093,0.014-1.498
			c0.067-0.811,0.103-1.244,0.103-1.244L69.422,4.223z"/>
	</g>
	<path fill="#464C4F" d="M34.69,140.673l-7.183-26.191l27.086-19.019l22.727,5.47l14.287-10.269L87.99,72.479
		c0,0,22.643-7.531,62.643-14.271c0,15.206,0,70.874,0,70.874L34.69,140.673z"/>
	<path fill="#2F3335" d="M87.992,72.479c0,0,3.641,18.401,62.641,10.877v45.727c0,0-55.582-20.231-59.129-38.418L87.992,72.479z"/>
	<path fill="#2F3335" d="M54.611,95.463l21.819,5.47c0,0,20.419,31.821,37.59,31.821l-39.371,3.935L54.611,95.463z"/>
	<polygon fill="#2F3335" points="27.543,114.481 19.182,136.688 31.56,146.834 34.763,140.673 	"/>
</g>
<g>
</g>
<g>
</g>
<g>
</g>
<g>
</g>
<g>
</g>
<g>
</g>
</svg>
