<?xml version="1.0" encoding="utf-8"?>
<!-- Generator: Adobe Illustrator 16.0.3, SVG Export Plug-In . SVG Version: 6.00 Build 0)  -->
<!DOCTYPE svg PUBLIC "-//W3C//DTD SVG 1.1//EN" "http://www.w3.org/Graphics/SVG/1.1/DTD/svg11.dtd">
<svg version="1.1" id="Layer_1" xmlns="http://www.w3.org/2000/svg" xmlns:xlink="http://www.w3.org/1999/xlink" x="0px" y="0px"
	 width="118.491px" height="163.632px" viewBox="0 0 118.491 163.632" enable-background="new 0 0 118.491 163.632"
	 xml:space="preserve">
<g>
	<path fill="#464C4F" d="M-4.28,0c4.833,3.378,35.349,28.719,35.349,28.719l3.672,25.157l20.88,11.676
		c0,0-2.722,44.257,8.433,52.431l24.443,3.401c0,0,14.602,12.56,13.686,16.397l12.113,12.863l0.597,16.987H0.358L-4.28,0z"/>
	<path fill="#2F3335" d="M31.068,28.739c0,0-34.841,10.669-42.186,7.341s0,43.729,0,43.729s44.834-15.257,45.858-25.922
		L31.068,28.739z"/>
	<path fill="#2F3335" d="M55.621,65.557c0,0-45.12,9.299-53.175,9.134c-8.055-0.165-11.269,66.652-11.269,66.652
		s79.915-6.714,72.876-23.357C57.016,101.341,55.331,77.054,55.621,65.557z"/>
	<path fill="#2F3335" d="M101.331,133.653l0.839,6.739c0,0-62.279,13.463-102.243,11.67
		C-0.074,152.062,86.163,141.827,101.331,133.653z"/>
	<path fill="#2F3335" d="M113.951,150.645c0,0,10.726,4.412-113.951,10.251l0.358,6.736h113.845L113.951,150.645z"/>
	<path fill="#464C4F" d="M55.696,89.326c0,0-2.699,8.264-50.44,14.253l54.023-1.205L55.696,89.326z"/>
	<g>
		<path fill="#47633F" d="M98.88,170.817c0,0-0.219-0.107-0.63-0.308c-0.378-0.264-0.955-0.693-1.321-1.496
			c-0.379-0.789-0.541-1.845-0.619-3.031c-0.095-1.184-0.066-2.54-0.412-3.931c-0.072-0.347-0.212-0.697-0.342-1.019
			c-0.174-0.338-0.351-0.683-0.531-1.032c-0.219-0.311-0.44-0.626-0.667-0.946c-0.277-0.282-0.528-0.598-0.837-0.863
			c-1.223-1.084-2.816-1.815-4.536-2.397c-1.7-0.608-3.585-1.148-5.187-2.392c-0.386-0.325-0.765-0.661-1.073-1.071l-0.245-0.294
			c-0.106-0.169-0.132-0.229-0.202-0.349c-0.123-0.202-0.239-0.419-0.317-0.697c-0.351-1.043-0.376-2.056-0.301-3.059
			c0.149-2,0.628-3.912,1.007-5.781c0.195-0.934,0.366-1.858,0.469-2.762c0.108-0.922,0.128-1.752-0.086-2.609
			c-0.297-1.83-0.764-3.446-1.294-5.02c-0.509-1.573-1.13-3.019-1.714-4.346c-0.304-0.66-0.596-1.292-0.872-1.894
			c-0.298-0.594-0.579-1.156-0.845-1.685c-0.525-1.061-1.045-1.954-1.429-2.716c-0.824-1.492-1.295-2.346-1.295-2.346l0.084-0.053
			c0,0,0.566,0.795,1.513,2.218c0.456,0.723,1.041,1.583,1.629,2.621c0.299,0.516,0.617,1.064,0.953,1.644
			c0.312,0.594,0.638,1.219,0.979,1.87c0.64,1.324,1.322,2.771,1.901,4.365c0.332,0.777,0.562,1.634,0.812,2.501
			c0.288,0.869,0.411,1.748,0.599,2.645c0.04,0.239,0.09,0.416,0.12,0.711l0.046,0.749c-0.017,0.49-0.035,0.982-0.107,1.461
			c-0.119,0.964-0.326,1.907-0.544,2.846c-0.431,1.877-0.943,3.753-1.129,5.643c-0.1,0.93-0.059,1.911,0.191,2.714
			c0.037,0.198,0.142,0.412,0.268,0.626l0.153,0.285l0.216,0.265c0.267,0.373,0.604,0.681,0.945,0.983
			c1.429,1.16,3.245,1.739,4.953,2.382c1.717,0.621,3.394,1.409,4.656,2.595c0.318,0.289,0.578,0.631,0.861,0.936
			c0.233,0.352,0.463,0.697,0.688,1.037c0.171,0.355,0.34,0.704,0.505,1.046c0.147,0.385,0.272,0.736,0.344,1.106
			c0.321,1.465,0.253,2.82,0.318,3.999c0.047,1.179,0.182,2.208,0.525,2.975c0.332,0.779,0.872,1.198,1.222,1.461
			c0.405,0.211,0.621,0.323,0.621,0.323L98.88,170.817z"/>
	</g>
	<g>
		<path fill="#47633F" d="M100.69,178.108c0,0,0.035-0.217,0.103-0.623c0.099-0.405,0.102-1.005,0.117-1.763
			c-0.031-0.765-0.1-1.69-0.226-2.753c-0.106-1.064-0.28-2.264-0.292-3.597c-0.023-0.332,0.003-0.673,0.023-1.02
			c0.023-0.335,0.024-0.724,0.106-1.065c0.154-0.696,0.202-1.425,0.454-2.157c0.248-0.732,0.464-1.509,0.871-2.208
			c0.331-0.743,0.805-1.416,1.27-2.112c0.98-1.349,2.119-2.629,3.188-3.968c0.543-0.656,1.045-1.39,1.541-2.05
			c0.438-0.75,0.963-1.482,1.335-2.251c0.35-0.775,0.752-1.521,0.971-2.351c0.306-0.798,0.439-1.633,0.589-2.455
			c0.182-1.658,0.197-3.317-0.13-4.894c-0.106-0.792-0.326-1.56-0.505-2.312c-0.236-0.743-0.427-1.479-0.685-2.183
			c-0.467-1.416-1.005-2.733-1.495-3.952c-0.974-2.444-1.783-4.497-2.253-5.967c-0.474-1.469-0.699-2.319-0.699-2.319l0.096-0.031
			c0,0,0.085,0.202,0.245,0.582c0.167,0.377,0.372,0.943,0.688,1.644c0.315,0.698,0.698,1.547,1.138,2.521
			c0.451,0.97,0.961,2.064,1.517,3.259c0.539,1.204,1.133,2.51,1.669,3.94c0.56,1.42,1.014,2.984,1.312,4.646
			c0.317,1.662,0.288,3.449,0.034,5.209c-0.181,0.875-0.352,1.758-0.694,2.594c-0.255,0.863-0.706,1.661-1.105,2.474
			c-0.414,0.801-0.936,1.493-1.396,2.242c-0.564,0.729-1.065,1.424-1.637,2.09c-1.118,1.338-2.271,2.58-3.255,3.874
			c-0.972,1.298-1.703,2.695-2.15,4.092c-0.264,0.687-0.34,1.442-0.512,2.125c-0.094,0.35-0.092,0.664-0.129,1.012
			c-0.029,0.336-0.065,0.665-0.052,0.992c-0.026,1.304,0.113,2.507,0.189,3.573c0.095,1.066,0.138,2.003,0.147,2.775
			c-0.038,0.777-0.062,1.387-0.17,1.785c-0.079,0.404-0.121,0.619-0.121,0.619L100.69,178.108z"/>
	</g>
</g>
<g>
</g>
<g>
</g>
<g>
</g>
<g>
</g>
<g>
</g>
<g>
</g>
</svg>
