<?xml version="1.0" encoding="utf-8"?>
<!-- Generator: Adobe Illustrator 16.0.3, SVG Export Plug-In . SVG Version: 6.00 Build 0)  -->
<!DOCTYPE svg PUBLIC "-//W3C//DTD SVG 1.1//EN" "http://www.w3.org/Graphics/SVG/1.1/DTD/svg11.dtd">
<svg version="1.1" id="Layer_1" xmlns="http://www.w3.org/2000/svg" xmlns:xlink="http://www.w3.org/1999/xlink" x="0px" y="0px"
	 width="556px" height="218.5px" viewBox="0 0 556 218.5" enable-background="new 0 0 556 218.5" xml:space="preserve">
<g>
	<path fill="#2D373F" d="M556,0H0v148.233c1,1.144,3.142,2.028,5.047,2.463c8.753,1.996,21.973-7.872,31.261-6.063
		c8.893,1.729,11.765,20.19,21.115,21.737c8.997,1.489,14.818,15.632,24.208,16.942c9.084,1.269,21.68-9.543,31.105-8.451
		c9.158,1.065,16.236,14.779,25.69,15.669c9.215,0.87,19.125,1.836,28.6,2.535c9.26,0.685,20.884-14.691,30.37-14.173
		c9.295,0.505,18.164,8.02,27.655,8.359c9.311,0.335,18.856,2.602,28.335,2.77c9.331,0.165,19.011-11.301,28.488-11.301
		c9.486,0,18.979,5.562,28.316,5.396c9.493-0.167,18.734-4.008,28.055-4.343c9.477-0.34,19.796,8.627,29.078,8.12
		c9.479-0.517,18.398-6.391,27.655-7.074c9.461-0.7,19.614,2.396,28.816,1.528c9.452-0.893,21.019,6.961,30.173,5.898
		c9.423-1.094,19.685-1.168,28.767-2.437c9.39-1.31,16.471-11.903,25.47-13.393c9.35-1.546,15.156-12.731,24.046-14.459
		c6.033-1.173,15.75,5.916,23.75,10.482V0z"/>
	<path fill="#384D54" d="M0,38.301c3,1.341,7.241,2.615,10.764,3.692c7.479,2.287,21.843-5.679,31.223-3.621
		c8.035,1.761,15.121,8.155,24.414,9.722c8.322,1.407,17.039,4.126,26.276,5.362c8.507,1.136,19.273-5.594,28.479-4.614
		c8.619,0.918,16.803,5.594,25.977,6.365c8.711,0.729,18.019-1.051,27.18-0.461c8.772,0.564,17.125,7.493,26.267,7.92
		c8.812,0.411,18.173-2.852,27.288-2.574c8.853,0.269,17.814,3.159,26.915,3.295c8.881,0.133,18.006,6.346,27.09,6.346
		c9.089,0,18.412,0.763,27.296,0.632c9.103-0.136,18.066-6.719,26.924-6.989c9.12-0.275,17.648-7.333,26.466-7.746
		c9.136-0.427,19.793,13.136,28.561,12.573c9.155-0.589,16.246-15.576,24.95-16.307c9.181-0.771,19.838,7.234,28.459,6.317
		c9.197-0.98,19.188,0.908,27.681-0.228c9.241-1.234,16.383-9.73,24.708-11.137c9.288-1.567,16.711-6.863,24.745-8.623
		c9.375-2.056,12.004-13.649,19.482-15.935c5.679-1.735,10.854-2.137,14.854-2.85V0H0V38.301z"/>
	<g>
		<path fill="#457070" d="M336.157,0.161c-0.73-0.011-1.462-0.076-2.193-0.161h-48.39c-1.23,0.205-2.465,0.331-3.7,0.331
			c-1.007,0-2.011-0.129-3.015-0.331H50.288c-5.516,2.747-7.556,6.062-7.556,7.68c0,2.535,5.801,6.09,21.404,8.226
			c7.479,1.023,16.965,0.051,27.381,0.938c8.219,0.702,16.65,6.475,26.465,7.076c8.517,0.521,17.98-1.87,27.554-1.434
			c8.678,0.396,17.658,2.896,27.1,3.214c8.781,0.296,17.716,5.459,27.075,5.682c8.855,0.213,18.067,1.058,27.364,1.199
			c8.909,0.138,18.226-4.836,27.48-4.768c8.95,0.066,18.105-5.257,27.32-5.257c9.222,0,18.469,11.218,27.423,11.151
			c9.257-0.071,18.162-11.642,27.075-11.779c9.295-0.143,18.691,6.801,27.547,6.587c9.352-0.223,18.705,1.937,27.482,1.639
			c9.437-0.319,18.188-6.464,26.865-6.858c9.564-0.437,18.355-3.894,26.87-4.415c9.814-0.601,17.514-9.379,25.733-10.079
			c10.412-0.888,19.299,0.852,26.779-0.172c0.509-0.07,1.021-0.132,1.533-0.19c-0.632-0.063-1.262-0.133-1.888-0.219
			c-3.858-0.528,8.678-4.437,4.749-8.221H338.05C337.418,0.111,336.786,0.171,336.157,0.161z"/>
	</g>
</g>
<g>
</g>
<g>
</g>
<g>
</g>
<g>
</g>
<g>
</g>
<g>
</g>
</svg>
